<svg xmlns="http://www.w3.org/2000/svg" width="680" height="195"><path fill="#E44D5E" d="M280 7c1.984 2.094 1.984 2.094 3.75 4.5l1.797 2.406C287 16 287 16 288 18c3.514-.429 6.193-1.088 9.438-2.562 3.97-1.602 6.334-2.143 10.562-1.438 4.75 4.21 6.353 8.974 8 15l2.379-1.312C329.384 21.854 329.384 21.854 335 23c5.232 2.865 7.413 7.849 10 13 3.135-.551 5.446-1.207 8.375-2.562C357.371 31.853 359.75 31.382 364 32c5.233 3.35 7.994 7.64 11 13l1.871-.875C382.464 41.673 387.861 39.45 394 41c5.793 4.871 8.599 12.626 10.867 19.707.201 4.98-1.673 8.896-3.492 13.48-4.473 11.833-8.246 23.823-11.875 35.938l-.844 2.811c-3.577 11.94-7.076 23.901-10.531 35.876-2.606 9.02-5.228 18.031-8 27l-.832 2.771-.785 2.499-.668 2.163C367 185 367 185 364 187c-4.756.62-8.328-.314-12.879-1.773A468 468 0 0 0 336.965 181l-3.51-1a966 966 0 0 0-7.14-2l-3.475-1-3.114-.875c-3.068-1.266-4.653-2.547-6.726-5.125a72 72 0 0 1-1.375-7.687c-1.077-6.734-2.4-12.511-7.625-17.313-5.84-3.507-13.379-4.167-20-3-5.134 2.305-8.72 5.625-12.312 9.875-2.918 2.998-4.95 3.684-9.125 3.875-7.13-.443-13.662-2.647-20.347-4.988a287 287 0 0 0-7.134-2.325q-2.448-.78-4.894-1.562l-2.337-.731c-3.685-1.206-6.34-2.16-8.851-5.144-.565-3.396-.558-6.885 1-10-.568.07-1.137.14-1.723.21-.772.055-1.544.11-2.34.165l-2.285.21c-5.011-1.106-8.343-4.564-11.083-8.795a159 159 0 0 1-3.756-7.415C195.377 109 195.377 109 190 103l-.06 2.032c-.096 3.052-.205 6.104-.315 9.156l-.094 3.197-.117 3.095-.095 2.841c-.346 2.909-.99 5.07-2.319 7.679-3.75 2.5-5.559 2.536-10 2-2.757-1.99-4.675-3.577-5.456-6.995-.182-2.479-.197-4.912-.16-7.398l-.016-2.844a765 765 0 0 1 .038-9.294q.003-3.234 0-6.467.004-6.774.052-13.547c.04-5.788.044-11.574.037-17.362-.004-4.45.009-8.901.026-13.352q.01-3.2.009-6.401c.002-2.983.023-5.965.05-8.947l-.009-2.67c.072-5.177.584-8.878 4.429-12.723 6.868-.572 6.868-.572 10.607 1.319 3.777 4.232 3.013 8.532 2.881 14.01l-.021 3.345c-.028 3.526-.09 7.05-.155 10.576q-.037 3.585-.068 7.172Q189.16 70.212 189 79l2.344-2.344L204 64l2.688-2.75c2.921-2.843 4.355-3.401 8.312-3.437l2.125-.043C219 58 219 58 221 60c.727 3.1.642 5.888 0 9-1.926 3.058-4.462 5.444-7 8a276 276 0 0 0-5 5.688l-2.375 2.699c-1.828 2.43-1.828 2.43-1.633 4.937 1.42 3.771 3.217 7.26 5.133 10.801l1.11 2.11c3.273 6.123 6.985 11.944 10.765 17.765 7.96-22.9 14.95-46.04 21.71-69.32 4.69-16.142 4.69-16.142 7.048-23.832l1.106-3.621c2.866-8.141 7.06-13.568 14.761-17.602 5.22-1.374 8.432-2.142 13.375.375"/><path fill="#E34F5E" d="M388.563 47.938 392 48l1 4h2v2l2 1c.03 3.25.047 6.5.063 9.75l.025 2.79.01 2.694.016 2.476C397 75.001 396.802 76.849 396 79l-3 2a221 221 0 0 0-2 7l-2 2c-1.313 4.201-.966 8.355-.742 12.695-.319 2.846-1.142 3.47-3.258 5.305-3.24 5.415-3.24 5.415-3.375 11.375.5 3.497-.547 4.855-2.625 7.625l-2 1c-.56 1.734-.56 1.734-1 4l-1 3.313c-1.087 3.652-1.087 3.652-1.437 7.375C373 146 373 146 371.539 147.816c-1.964 2.787-2.252 5.076-2.726 8.434-.16 1.078-.318 2.155-.481 3.266L368 162h-2l-1 9 4 1v3l-3.312.438c-1.973.438-1.973.438-3.688 1.562-1.528 2.883-2.313 5.82-3 9l-.937-1.812c-2.691-2.854-5.301-3.486-9.004-4.575C347 179 347 179 345 178c-4.063-1.354-8.024-1.327-12.285-1.523L330 176l-2-3c-3.449-.825-6.442-1-10-1l-.367-2.965c-.9-7.098-1.924-14.078-3.633-21.035h-2c-2.214-2.56-4.122-5.183-6-8-2.111-.69-2.111-.69-4.57-.95l-2.715-.38-2.84-.357-2.863-.393A711 711 0 0 0 286 137l-1-6h-2c-1.741-3.021-2.25-5.187-2.243-8.66l-.01-2.781.023-2.977v-3.07q.006-3.206.024-6.412c.018-3.285.02-6.57.02-9.856q.007-3.113.018-6.224l.003-2.996.02-2.751.011-2.433C281 81 281 81 282 80v-5l-13-2 .016 4.985q.026 9.147.039 18.294.008 3.96.02 7.92c.013 3.794.018 7.586.023 11.38l.015 3.582v3.336l.007 2.934c-.111 2.38-.328 4.325-1.12 6.569-2.125 1.875-2.125 1.875-5 3-3.562-.375-3.562-.375-7-2-4.192-5.688-4.559-10.181-4.426-17.113l.01-2.935c.016-3.089.06-6.176.103-9.264q.018-3.048.03-6.096c.055-9.28.24-18.553.678-27.822l.09-2.224c.203-3.705.744-6.31 2.515-9.546q10.965-.301 21.933-.547 5.093-.111 10.186-.252c3.91-.11 7.819-.193 11.729-.275l3.668-.113C308.78 56.7 313.548 56.748 319 60c.938 2.188.938 2.188 1 4l5 1v2l3-1 .25-2.312c.75-2.688.75-2.688 2.375-4.5 3.327-1.664 5.698-1.575 9.375-1.188 2.813 1.063 2.813 1.063 5 3 .72 2.318 1.391 4.651 2 7l3 1c.844 2.879.844 2.879 1.5 6.563 1.053 5.453 2.353 10.325 4.5 15.437l1-2h2l.375-2.625C360 83 360 83 360.985 80.293c1.364-4.424 1.7-8.866 2.05-13.459.477-4.738 1.483-7.538 4.965-10.834h3v-4l2.809-.621 3.628-.816 3.622-.81c7.056-1.808 7.056-1.808 7.503-1.815"/><path fill="#514B4D" d="M25 25c3.136 1.78 3.841 2.523 5 6 .083 1.992.107 3.987.098 5.98l-.01 3.526-.026 3.682-.013 3.716A3144 3144 0 0 1 30 57c1.085.11 2.17.22 3.29.332l4.335.48 2.16.213c6.142.705 11.29 2.335 15.465 7.163l1.453 1.605c3.313 5.639 3.606 12.099 3.598 18.477l.013 2.308q.008 2.4.002 4.802c-.003 2.416.02 4.831.045 7.247.04 9.61-.215 18.686-4.986 27.31-7.194 6.248-15.676 7.258-24.812 7.313l-2.565.063c-4.818.03-8.123-.118-11.998-3.313-2.246-3.37-2.292-4.626-2.414-8.586l-.118-3.673-.093-4.116-.054-2.125c-.385-15.523-.486-31.054-.551-46.582q-.018-4.165-.054-8.33c-.033-3.951-.04-7.902-.044-11.854l-.037-3.623C12.662 31.663 12.662 31.663 16 27c3.489-2.326 4.897-2.419 9-2m5 49a59 59 0 0 0-.13 4.137l-.009 2.66.006 2.89-.003 2.948q0 3.093.006 6.184.005 4.75-.007 9.501 0 2.997.004 5.993l-.006 2.89.01 2.66.002 2.353c-.067 1.808-.067 1.808 1.127 2.784 5.874.42 5.874.42 11-2 2.99-5.86 2.335-12.257 2.316-18.665-.003-2.197.02-4.392.045-6.589q.004-2.119.002-4.238l.01-3.855C43.944 79.464 42.832 76.759 41 73a758 758 0 0 0-4.937-.062l-2.778-.036c-2.25-.161-2.25-.161-3.285 1.098"/><path fill="#534E50" d="M181.797 24.574c3.505.678 4.804 1.737 7.203 4.426.72 3.773.58 7.5.488 11.328l-.021 3.346c-.028 3.526-.09 7.05-.155 10.576q-.037 3.585-.068 7.172Q189.16 70.212 189 79l2.344-2.344L204 64l2.688-2.75c2.921-2.843 4.355-3.401 8.312-3.437l2.125-.043C219 58 219 58 221 60c.727 3.1.642 5.888 0 9-1.926 3.058-4.462 5.444-7 8a276 276 0 0 0-5 5.688l-2.375 2.699c-1.827 2.429-1.827 2.429-1.637 4.933 1.434 3.797 3.26 7.306 5.2 10.868l1.224 2.286a246 246 0 0 0 7.025 12.213c2.047 3.369 3.848 6.383 4.563 10.313-.875 3.375-.875 3.375-2 6-1.517.165-3.04.28-4.562.375l-2.567.21c-4.404-.898-6.94-3.252-9.871-6.585-1.997-3.088-3.604-6.31-5.187-9.625C195.377 109 195.377 109 190 103l-.06 2.032c-.096 3.052-.205 6.104-.315 9.156l-.094 3.197-.117 3.095-.095 2.841c-.346 2.909-.99 5.07-2.319 7.679-3.75 2.5-5.559 2.536-10 2-2.757-1.99-4.675-3.577-5.456-6.995-.182-2.479-.197-4.912-.16-7.398l-.016-2.844a765 765 0 0 1 .038-9.294q.003-3.234 0-6.467.004-6.774.052-13.547c.04-5.788.044-11.574.037-17.362-.004-4.45.009-8.901.026-13.352q.01-3.2.009-6.401c.002-2.983.023-5.965.05-8.947l-.009-2.67c.113-8.101 1.665-12.675 10.226-13.149"/><path fill="#545152" d="m537.254 24.406 2.308.094 2.317.031c2.603.576 3.5 1.38 5.121 3.469.976 2.93 1.121 4.79 1.114 7.839v2.972l-.016 3.2-.005 3.284c-.005 3.464-.018 6.928-.03 10.392q-.009 3.522-.014 7.042Q548.032 71.365 548 80c3.546-3.475 6.546-7.34 9.648-11.21 2.325-2.758 4.77-5.275 7.352-7.79l1.531-1.79c2.016-1.66 3.387-1.61 5.969-1.585l2.344-.023c2.678.495 3.541 1.23 5.156 3.398.712 3.381.941 4.785 0 8-3.237 4.509-7.256 8.275-11.191 12.168l-1.934 2.02-1.758 1.73c-1.794 3.344-1.039 5.447-.117 9.082 1.396 3.253 3.046 6.337 4.75 9.438l1.305 2.447c2.463 4.576 5.072 9 7.938 13.335 1.65 2.918 2.007 5.466 2.007 8.78-1 2.375-1 2.375-3 4-3.777 1.07-6.154 1.267-9.91.082-4.39-2.958-5.959-6.642-8.215-11.332q-1.252-2.508-2.508-5.016l-1.196-2.423c-1.61-3.176-3.37-6.24-5.171-9.311l-2 1-.06 1.74a1504 1504 0 0 1-.315 7.885c-.03.904-.062 1.807-.094 2.738-.212 4.836-.462 9.175-2.531 13.637-3.71 2.473-5.61 2.385-10 2-2.375-1.062-2.375-1.062-4-3-1.053-5.425-1.16-10.75-1.177-16.252l-.02-2.728c-.02-2.957-.031-5.914-.041-8.872l-.013-3.07q-.03-8.032-.044-16.065c-.011-5.53-.046-11.059-.085-16.588-.026-4.257-.035-8.513-.038-12.77a913 913 0 0 0-.035-6.117 779 779 0 0 1-.017-8.544l-.039-2.548c.036-4.013.22-5.984 2.398-9.471C535 25 535 25 537.254 24.406"/><path fill="#534E50" d="M622.281 61.77c3.913 3.707 6.68 6.804 7.719 12.23l.625 3.25c1.745 17.45 1.745 17.45-3.35 23.952-2.855 2.257-4.313 2.265-7.916 2.189l-3.242-.04-3.367-.101-3.414-.055q-4.169-.071-8.336-.195a268 268 0 0 0-.125 4.25l-.07 2.39c.212 2.567.908 4.152 2.195 6.36 4.23.338 6.367.431 9.938-2 4.15-2.71 6.18-2.64 11.062-2 2.872 2.243 2.97 3.769 3.438 7.375-.543 4.493-1.377 6.273-4.438 9.625-6.615 4.664-13.006 6.219-21 5-7.528-1.851-12.767-6.596-17-13-1.34-4.727-1.18-9.556-1.203-14.43l-.017-2.753q-.014-2.877-.02-5.754c-.01-2.921-.041-5.841-.072-8.762q-.01-2.803-.016-5.606l-.038-2.627c.03-8.368 2.59-14.016 8.366-20.068 8.395-6.407 22.052-5.614 30.281.77m-20.656 12.042c-2.42 3.258-2.763 5.87-2.75 9.813l-.008 2.414c-.083 1.965-.083 1.965 1.133 2.961 4.84.164 9.233-.047 14-1 .081-1.916.14-3.833.188-5.75l.105-3.234c-.327-3.361-.878-4.69-3.293-7.016-4.035-.587-6.086-.697-9.375 1.813"/><path fill="#504A4C" d="M157 61c9.24 9.488 9.077 23.527 9 36-.147 3.554-.416 7.084-.75 10.625l-.224 2.474c-.711 6.489-1.824 13.852-7.151 18.213-5.677 4.377-12.384 6.395-19.543 6.094-5.382-.937-10.221-3.182-14.004-7.168-5.684-8.242-5.726-18.825-6.078-28.488l-.124-3.325c-.65-22.698-.65-22.698 6.347-31.218 9.32-8.176 21.811-9.774 32.527-3.207m-22 15c-.495 3.045-.68 5.521-.629 8.563l-.007 2.51q0 2.622.04 5.244c.033 2.674.02 5.345 0 8.019q.01 2.55.03 5.102l-.015 2.418c.075 3.565.287 5.735 2.394 8.667 2.24 1.787 2.24 1.787 5.75 1.665 3.697-.85 3.697-.85 5.14-4.263 1.52-3.949 1.645-7.717 1.477-11.905l-.059-2.229a460 460 0 0 0-.157-4.626 462 462 0 0 1-.198-7.07q-.072-2.256-.149-4.513l-.048-2.125c-.18-4.033-.615-6.6-3.569-9.457-4.57-.962-6.894.726-10 4"/><path fill="#555053" d="m89.813 57.813 2.158-.038c5.223-.014 8.948.416 12.943 3.89l1.711 1.96 1.727 1.914c4.084 6.098 5.1 11.904 5.011 19.055l.002 2.397q-.004 2.49-.029 4.981c-.023 2.521-.02 5.042-.014 7.563q-.007 2.436-.021 4.871l.003 2.252c-.125 9.311-2.287 16.414-9.117 23.092-5.823 4.11-12.195 5.197-19.187 4.25-6.97-2.1-11.62-5.516-15.75-11.562-2.447-4.773-2.438-9.402-2.488-14.684l-.025-2.445q-.02-2.565-.032-5.132a489 489 0 0 0-.062-5.18C66.283 74.042 66.283 74.042 71 65c2.792-2.588 5.565-4.382 9-6 3.113-1.556 6.4-1.184 9.813-1.187M85 73c-3.8 3.8-3.172 8.537-3.203 13.652l-.017 2.234a1306 1306 0 0 0-.02 4.667c-.01 2.373-.041 4.745-.073 7.117l-.015 4.545-.038 2.137c.02 4.357.521 7.277 3.366 10.648 5.314.714 5.314.714 10.08-1.252 2.946-2.681 2.62-5.046 2.856-8.868.111-5.014-.019-9.996-.249-15.005l-.107-3.129C97.477 79.59 97.477 79.59 93 71c-3.248 0-5.077.65-8 2"/><path fill="#FCF1F2" d="m295.813 59.688 3.842-.09c7.204-.046 13.226.312 19.345 4.402 1.938 2.035 1.938 2.035 3 4.063l1.125 2.035c1.628 3.54 2.005 6.315 2.02 10.168l.02 3.256.003 3.513.01 3.605q.007 3.774.007 7.548c.002 3.862.02 7.725.04 11.587q.005 3.662.005 7.323l.022 3.52-.01 3.246.005 2.866C325 129 325 129 323 131c-3.625.125-3.625.125-7 0l-.025-1.934q-.13-9.976-.292-19.953-.058-3.721-.105-7.444c-.046-3.57-.104-7.139-.164-10.708l-.035-3.353c-.108-7.507-.108-7.507-2.379-14.608-3.042-1.521-6.28-1.374-9.625-1.562l-2.14-.131Q298.616 71.149 296 71l.007 2.233q.03 10.396.045 20.793.007 5.345.023 10.691c.013 4.093.018 8.186.023 12.28l.015 3.894v3.58l.007 3.169C296 130 296 130 295 131c-2.67.141-5.324.042-8 0-1.33-2.66-1.12-4.666-1.114-7.643v-3.58l.016-3.879.005-3.96q.006-5.212.024-10.425.014-5.319.02-10.638.016-10.437.049-20.875h-20l-.076 5.292q-.126 8.646-.263 17.291-.084 5.242-.158 10.486-.087 6.024-.187 12.048l-.05 3.813-.06 3.519-.048 3.109C265 128 265 128 264 130c-2.437.75-2.437.75-5 1-2-2-2-2-2.247-4.777l.004-3.585-.006-1.976c-.003-2.16.007-4.319.019-6.478v-4.491q.003-4.707.024-9.414.024-6.047.02-12.093.001-4.636.013-9.273.004-2.23.006-4.46.004-3.11.022-6.22l.011-3.583C257 62 257 62 258 61c12.56-1.03 25.216-1.157 37.813-1.312"/><path fill="#514D50" d="M649.438 28.375c4.41.774 5.82 2.156 8.562 5.625.98 2.941 1.116 4.825 1.098 7.887l-.01 2.842-.025 2.959-.014 2.994Q659.03 54.342 659 58l3.816-.066c3.901-.068 6.23.292 9.184 3.066 1.088 3.74 1.594 5.87-.25 9.375C667.805 74.038 664.644 73 659 73l1 44 9 3c3 3 3 3 3.5 5.875-.5 3.125-.5 3.125-2.437 6-4.16 2.887-7.146 3.003-12.063 2.125-5.819-1.863-9.607-4.862-13-10-2.733-6.243-3.461-12.092-3.512-18.848l-.054-2.719c-.054-2.832-.088-5.663-.121-8.496q-.05-2.901-.104-5.802Q641.085 81.067 641 74l-1.715-.621-2.222-.817-2.215-.808C633 71 633 71 632 70c-.456-6.954-.456-6.954 1.063-10.437 2.763-2.23 5.473-2.15 8.937-2.563l-.063-2.032a870 870 0 0 1-.187-9.156l-.102-3.197c-.098-7.815-.098-7.815 2.153-11.814C646 29 646 29 649.437 28.375"/><path fill="#554E52" d="m426.5 29.063 2.344.16C431 30 431 30 432.766 32.168c1.426 3.273 1.57 5.523 1.484 9.082l-.078 3.434A148 148 0 0 1 433 57l2.012.113c9.72.724 9.72.724 12.988 3.887 1.188 3.375 1.188 3.375 1 7-2.375 2.938-2.375 2.938-6 5h-9l1 43 9 3c3.095 3.095 3.805 3.805 4 8-2.277 5.639-2.277 5.639-5 7-7.68.817-15.045-1.648-21.062-6.437-3.741-4.948-4.316-9.615-4.563-15.688l-.115-2.425c-.489-11.807-.346-23.636-.26-35.45l-2.816-.86c-3.876-1.388-5.717-2.851-8.184-6.14-.07-3.54.264-5.21 2.688-7.812 2.75-1.413 5.269-1.734 8.312-2.188-.01-.645-.02-1.291-.032-1.956-.041-2.931-.067-5.863-.093-8.794l-.05-3.078-.02-2.969-.032-2.73c.246-2.68.76-4.227 2.227-6.473 3.214-2.143 3.852-2.272 7.5-1.937"/><path fill="#544D51" d="M514.215 59.738c4.305 3.043 7.134 5.733 9.222 10.637.689 4.434.655 7.256-.437 11.625-2.853 2.769-4.545 2.976-8.5 3.188-4.418-1.5-5.428-3.337-7.652-7.278C506 76 506 76 506 74l-3.812-.312-2.145-.176c-2.275.32-2.275.32-3.762 2.664-5.238 11.547-2.405 28.56-1.281 40.824 5.61.234 5.61.234 11-1 1.237-1.778 1.237-1.778 2.063-3.937 1.393-3.296 1.793-3.967 4.937-6.063 3.43-.438 5.332-.369 8.375 1.313 2.664 4.405 2.536 8.695 1.625 13.687-2.638 5.447-6.703 9.121-12 12-6.86 2.119-13.868 1.914-20.375-1.125-6.308-3.579-9.976-7.93-12.066-14.945C476.34 105.294 476.724 92.789 477 81l.016-2.871C477.29 71.674 479.25 67.434 484 63c8.958-6.23 20.262-9.086 30.215-3.262"/><path fill="#BA5C66" d="M319 60c.703 2.11.703 2.11 1 4h3l3 11h2v56c-7 4-7 4-9.398 3.875l-1.977-.875-2.023-.812c-2.136-1.584-2.13-2.595-2.602-5.188a118 118 0 0 1-.205-5.411l-.06-3.275-.051-3.517-.063-3.615q-.097-5.715-.183-11.432l-.131-7.75q-.16-9.5-.307-19h-13l.048 5.2q.07 8.496.107 16.992c.016 3.435.037 6.87.071 10.304.04 3.947.054 7.893.067 11.84.015 1.236.03 2.473.047 3.747v3.458l.02 3.055L298 131c-3.314 2.21-4.345 2.225-8.187 2.125l-2.731-.055L285 133v-2h-2c-1.741-3.021-2.25-5.187-2.243-8.66l-.01-2.781.023-2.977v-3.07q.006-3.206.024-6.412c.018-3.285.02-6.57.02-9.856q.007-3.113.018-6.224l.003-2.996.02-2.751.011-2.433C281 81 281 81 282 80v-5l-13-2 .016 4.985q.026 9.147.039 18.294.008 3.96.02 7.92c.013 3.794.018 7.586.023 11.38l.015 3.582v3.336l.007 2.934c-.111 2.38-.328 4.325-1.12 6.569-2.125 1.875-2.125 1.875-5 3-3.562-.375-3.562-.375-7-2-4.192-5.688-4.559-10.181-4.426-17.113l.01-2.935c.016-3.089.06-6.176.103-9.264q.018-3.048.03-6.096c.055-9.28.24-18.553.678-27.822l.09-2.224c.203-3.705.744-6.31 2.515-9.546 7.828-.22 15.657-.414 23.486-.592q3.993-.094 7.985-.207c3.832-.107 7.665-.193 11.498-.275l3.587-.113c6.513-.118 11.638.067 17.444 3.187m-51.812.438-2.8.118c-4.02-.174-4.02-.174-7.388 1.444a133 133 0 0 0-.114 6.264v1.98c0 2.17.009 4.34.016 6.51l.005 4.502q.006 5.935.024 11.871.014 6.052.02 12.105.016 11.884.049 23.768c1.833 1.125 1.833 1.125 4 2l3-1c1.31-2.622 1.16-4.615 1.205-7.551l.06-3.519.051-3.813.063-3.892q.082-5.124.153-10.249.077-5.228.161-10.456.161-10.26.307-20.52h20l-.016 5.384q-.023 8.796-.036 17.59-.007 5.334-.023 10.668c-.013 4.085-.018 8.17-.023 12.256l-.015 3.88v3.579l-.007 3.163c-.047 2.482-.047 2.482 1.12 4.48 4.003.092 4.003.092 8 0 1.267-1.043 1.267-1.043 1.12-3.36l-.006-3.17v-3.579l-.016-3.895-.005-3.964q-.006-5.226-.024-10.45-.014-5.33-.02-10.658Q296.033 81.46 296 71q3.658.133 7.313.313l2.091.068c2.889.153 5.08.27 7.514 1.912 2.165 3.416 2.22 6.972 2.287 10.935l.06 3.153.051 3.385.063 3.48q.097 5.502.183 11.004l.131 7.46q.161 9.146.307 18.29c3.417.167 3.417.167 7 0 2.546-2.546 2.266-3.491 2.306-7.025l.049-3.178.016-3.453c.01-1.172.018-2.344.027-3.552q.022-3.732.028-7.465c.011-3.784.06-7.567.111-11.35q.015-3.63.022-7.258l.059-3.404C325.576 76.947 324.373 71.07 320 65c-4.955-4.233-9.953-5.255-16.375-5.23l-3.706.003-3.919.04-4.018.021c-8.27.058-16.533.249-24.795.603"/><path fill="#FBF1F3" d="M337.938 59.625C341 60 341 60 342.813 61.563c1.51 3.1 1.71 6.032 2.187 9.437l1.473 2.379c1.663 2.854 2.066 4.863 2.464 8.121 1.507 11.65 1.507 11.65 7.063 21.5l.411-1.633c.628-2.478 1.265-4.954 1.901-7.43l.647-2.568c.993-3.839 2.034-7.352 3.635-10.994 1.638-3.931 2.107-7.08 2.594-11.312l.248-2.073c.197-1.662.382-3.326.564-4.99 3.726-1.047 7.13-1.074 11-1 .357 6.566-.147 10.964-3 17-.33 1.336-.62 2.68-.883 4.031-1.357 6.392-3.488 12.517-5.55 18.71-1.738 5.32-3.143 10.55-4.118 16.064-.445 2.173-1.069 4.173-1.824 6.257-1.068 2.995-1.883 5.97-2.566 9.07l-.5 2.266a302 302 0 0 0-.937 4.487c-1.036 4.775-2.543 8.202-5.622 12.115a88 88 0 0 1-5 3l-2 3c-3.055 1.162-6.01 1.105-9.25 1.063l-2.703-.028L331 158q-.04-2.22-.062-4.437l-.036-2.497C331 149 331 149 332 148a86 86 0 0 1 4.563-.562l2.503-.254L341 147v-2l3-2a67 67 0 0 0 2.188-7.125l.521-2.065c1.83-7.57 1.84-12.837-.857-20.134-1.055-3.314-1.659-6.631-2.29-10.051C342.339 97.107 340.39 91.172 338 85c-5.934-16.192-5.934-16.192-5-23 2-2 2-2 4.938-2.375"/><path fill="#C25361" d="M335 23c5.232 2.865 7.413 7.849 10 13 3.135-.551 5.446-1.207 8.375-2.562C357.371 31.853 359.75 31.382 364 32c5.233 3.35 7.994 7.64 11 13l1.871-.875C382.464 41.673 387.861 39.45 394 41c5.793 4.871 8.599 12.626 10.867 19.707.201 4.98-1.673 8.896-3.492 13.48-4.473 11.833-8.246 23.823-11.875 35.938l-.844 2.811c-3.577 11.94-7.076 23.901-10.531 35.876-2.606 9.02-5.228 18.031-8 27l-.832 2.771-.785 2.499-.668 2.163C367 185 367 185 364 187c-2.687-.375-2.687-.375-5-1 .373-3.125.85-6.061 2-9 2.896-1.508 4.77-2 8-2l-2-4h-2l1-9h2l-.105-1.758c-.182-5.244.242-8.662 3.105-13.242l1-1c.54-2.997.965-6.006 1.402-9.02.545-2.715 1.298-4.572 2.598-6.98l.375-2.562c.785-3.063 1.986-3.82 4.625-5.438l-.75-3.125c-.309-4.785.906-6.137 3.75-9.875a88 88 0 0 0 2-5l1-2-.062-3.25c.085-5.111 1.24-8.516 4.062-12.75l.938-3.125c.35-.949.7-1.898 1.062-2.875l3-1c.029-3.937.047-7.875.063-11.812l.025-3.393.01-3.252.016-3c-.003-2.667-.003-2.667-1.114-5.543h-2l-1-4c-4.118.438-7.717 1.175-11.625 2.563-3.243 1.134-5.898 1.872-9.375 1.437-1-1-1-1-1.062-3.562L370 46h-2v-6h-2v-2l-3.812-.125-2.145-.07c-2.357.062-2.357.062-5.043 2.195h-3v2c-4.285.775-7.81 1.396-12 0-2.816-2.816-2.858-5.1-3-9l1-2c-3-1.333-3-1.333-6 0-2.043-.996-2.043-.996-4.187-2.437l-2.168-1.434L324 26c3.513-3.372 6.237-3.585 11-3"/><path fill="#BA5260" d="M280 7c1.984 2.094 1.984 2.094 3.75 4.5l1.797 2.406C287 16 287 16 288 18c3.514-.429 6.193-1.088 9.438-2.562 3.97-1.602 6.334-2.143 10.562-1.438 4.75 4.21 6.353 8.974 8 15l2.875-1.5C322 26 322 26 324 26v5c-4.51 1.367-7.62.6-12-1l-1-2-4-2v-9l-1.5 1.375c-3.865 2.512-8.24 3.228-12.727 4.016-2.425.43-2.425.43-5.773 1.609-1.597 2.483-1.597 2.483-2 5h-1l-.375-2.437L283 24l-2-1v-3h-2l-.875-2.812c-1.012-3.286-1.012-3.286-3.125-6.188-4.332.86-4.332.86-8 3-1.666.04-3.334.043-5 0l-.937 3.875c-.54 2.226-1.037 4.072-2.063 6.125h-2c-.09 1.212-.09 1.212-.184 2.45l-.253 3.238-.247 3.199c-.545 5.367-1.589 8.64-4.406 13.285-1.395 2.801-1.51 5.748-1.91 8.828a88 88 0 0 1-3 5 69 69 0 0 0-1 4l-1 1a85 85 0 0 0-.375 4c-.332 3.387-.965 6.302-2.125 9.5-1.63 4.507-2.121 8.73-2.5 13.5h-2v3h-2l-.375 2.125C235 100 235 100 234.063 102.688c-1.172 3.652-1.851 7.267-2.5 11.042C231 116 231 116 229 119c-.308 2.012-.308 2.012-.375 4.188-.362 4.36-1.672 7.305-3.98 10.988-.854 1.858-.854 1.858-.051 3.933 1.816 2.443 3.21 2.893 6.094 3.828l2.953.989L237 144q2.97.976 5.939 1.963c1.923.637 3.85 1.263 5.776 1.889 5.22 1.824 5.22 1.824 7.285 3.148l1 3c-4.56 1.377-7.486.507-11.945-.984l-1.975-.656a519 519 0 0 1-4.11-1.392c-2.09-.716-4.187-1.41-6.286-2.1q-2.003-.675-4.004-1.352l-3.665-1.242c-2.769-1.17-4.301-1.842-6.015-4.274-.57-5.508.269-9.587 2.246-14.727.84-2.326.84-2.326 1.191-5.067.54-3.073 1.324-5.827 2.32-8.78l1.125-3.387 1.243-3.727c5.604-16.993 10.604-34.162 15.608-51.34 5.506-18.9 5.506-18.9 8.029-27.132l1.104-3.618c2.864-8.14 7.06-13.564 14.759-17.597 5.22-1.374 8.432-2.142 13.375.375"/><path fill="#555153" d="M466 59c1.675 1.134 1.675 1.134 3 3 2.19 12.235 1.06 25.502.813 37.867-.064 3.353-.105 6.704-.145 10.057q-.059 3.216-.121 6.431l-.029 3.018c-.215 8.688-.215 8.688-3.518 12.627-2.81 1.405-4.888 1.249-8 1-3.136-1.78-3.841-2.523-5-6a142 142 0 0 1-.161-6.26l-.03-3.913-.012-4.233-.017-4.338q-.015-4.544-.02-9.089c-.006-3.884-.03-7.767-.058-11.651-.019-2.986-.024-5.97-.026-8.956a610 610 0 0 0-.024-4.297 554 554 0 0 1-.008-6.003l-.011-3.452C453 62 453 62 454.335 60.171 458.276 57.4 461.489 58.033 466 59"/><path fill="#D05F6B" d="M340 58c2.813 1.063 2.813 1.063 5 3 .72 2.318 1.391 4.651 2 7l3 1c.844 2.879.844 2.879 1.5 6.563 1.053 5.453 2.353 10.325 4.5 15.437l1-2h2l.375-2.875C360 83 360 83 362 81c-1.393 7.408-3.119 14.702-5 22h-3c-4.063-8.514-5.877-17.687-7.473-26.941-.48-2.346-.48-2.346-2.527-5.059l-1-7-2-3c-3.042-.333-3.042-.333-6 0-1.402 1.182-1.402 1.182-1.23 4.531.063 4.691 1.319 8.596 2.918 12.969q.827 2.373 1.652 4.746l.843 2.398c2.895 8.348 5.69 16.807 7.415 25.481.395 1.84.96 3.642 1.527 5.438 1.765 6.932.82 12.467-.875 19.312l-.475 2.021c-1.271 4.764-1.271 4.764-3.916 6.55L341 145v2l-9 2-1 9c2.292-.06 4.584-.149 6.875-.25l3.867-.14L345 157c1.364-1.888 1.364-1.888 2-4l2.438-1.437c3.76-2.293 5.13-5.172 6.422-9.33l.675-2.98.764-3.286.764-3.405q.763-3.342 1.535-6.683l.672-2.982c.763-3.027 1.724-5.943 2.73-8.897q.925-3.495 1.813-7a156 156 0 0 1 4.812-15.312c1.796-4.85 3.125-9.494 3.918-14.602C374 75 374 75 375.012 73.055c1.194-2.484 1.397-4.566 1.613-7.305l.227-2.703L377 61l-9 1-1-2q2.938-.04 5.875-.062l3.305-.036C379 60 379 60 381 61v2h-2v11h-2l.07 1.793.055 2.394.07 2.356c-.225 2.83-1.13 4.829-2.195 7.457a197 197 0 0 0-1.5 7.688l-.77 4.261-.373 2.088c-.727 3.999-1.543 7.98-2.357 11.963l-3 1-.352 2.152c-.69 3.03-1.751 5.578-3.023 8.41-2.58 6.031-4.15 12.064-5.625 18.438-1.369 5.083-3.551 9.968-7 14h-3v2h-18c-2.293-4.585-2.132-6.122-1-11 1-2.312 1-2.312 3-4 2.964-.921 5.937-1.512 9-2l.313-3c.39-2.859 1.121-5.224 2.25-7.875 2.716-6.865 1.474-13.993.437-21.125h-2c-1.497-4.69-2.334-9.08-2.754-13.984-.203-2.218-.203-2.218-1.246-5.016h-2c-1.158-3.473-1.069-6.36-1-10h-2c-4.605-17.98-4.605-17.98-1.937-23 3.088-1.594 5.522-1.353 8.937-1"/><path fill="#4F464A" d="m89.813 57.813 2.158-.038c5.291-.014 9.033.377 12.978 4.03l1.739 2.07 1.761 2.055c3.565 4.76 3.565 4.76 3.528 8.21L111 80l-4-1-1-7h-2v2h-3l.048 3.577c.054 4.394.088 8.789.117 13.183q.022 2.849.061 5.698c.037 2.735.054 5.47.067 8.206.015.844.03 1.688.047 2.558.001 4.972-.45 8.53-3.34 12.778-3.187.875-3.187.875-6 1v-2l-3-1 7-3c.97-7.44 1.031-14.638.688-22.125l-.108-3.129C96.33 83.898 95.773 78.592 94 73c-3.152-2.802-6.959-2.155-11-2l-1-3h-1l-1 3-2.937.813L74 73c-1.452 3.018-1.452 3.018-2 6h2l-1 3h-1l-1 22h-1l-1-15h-1c-1.574-8.539-1.076-16.195 3-24 2.742-2.64 5.569-4.384 9-6 3.113-1.556 6.4-1.184 9.813-1.187"/><path fill="#C44D5E" d="M280 137c18.684-.498 18.684-.498 26 2 3 3.198 3 3.198 3 6l3 1v2h2c2.886 8.33 4.154 15.163 4 24l3.188-.687c4.192-.344 5.607.065 8.812 2.687v2l2.414-.035c14.117-.12 14.117-.12 19.586 3.035v2l2.375.188L357 182c1.313 2.563 1.313 2.563 2 5-7.506-1.536-14.75-3.662-22.062-5.937l-3.432-1.053c-17.574-5.435-17.574-5.435-20.506-9.01a103 103 0 0 1-1.312-7.625c-1.113-6.738-2.459-12.569-7.688-17.375-5.84-3.507-13.379-4.167-20-3-5.134 2.305-8.72 5.625-12.312 9.875-2.322 2.503-3.349 3.077-6.79 3.566A87 87 0 0 1 256 156l2-3h8l2-3h2v-4l3-1 1.438-2.5c1.562-2.5 1.562-2.5 3.75-3.312L280 139z"/><path fill="#C95F6B" d="M255 58h5c-3 2-3 2-5 2l.208 2.153c.703 7.763.996 15.477 1.108 23.269l.063 3.715q.096 5.807.183 11.613l.131 7.93q.16 9.66.307 19.32c2.647 1.46 3.894 2 7 2l.076-3.893q.144-7.254.296-14.51.065-3.12.125-6.24c.23-11.817.595-23.57 1.503-35.357h20v57h-1V71h-18l.483 5.263c.785 9.463.816 18.922.867 28.413q.025 3.411.082 6.822c.055 3.304.077 6.607.091 9.912l.07 3.087c-.009 2.597-.058 4.962-.593 7.503-2.31 2.185-2.31 2.185-5 3-3.562-.375-3.562-.375-7-2-4.192-5.688-4.559-10.181-4.426-17.113l.01-2.935c.016-3.089.06-6.176.103-9.264q.018-3.048.03-6.096c.055-9.28.24-18.553.678-27.822l.09-2.224c.198-3.624.548-6.45 2.515-9.546"/><path fill="#524C4D" d="M157 61c2.625 2.625 2.625 2.625 4 5v2l-2.312.313c-2.909.744-3.761 1.485-5.688 3.687l-2 1-2 2-1.687-1c-2.72-1.176-4.377-1.367-7.313-1-3.089 1.802-3.848 2.544-5 6h-2l-1-3-2.375 1C127 78 127 78 125 78l-.375-2.937L124 72l-2-1-1 2c0-3.202.464-5.337 2.496-7.852C133.226 55.946 145.3 54.671 157 61"/><path fill="#4C4042" d="m174 30 3 2c.392 2.383.392 2.383.417 5.423l.05 3.463.01 3.79.07 5.96q.032 3.167.05 6.335c.026 4.33.071 8.661.122 12.992l.049 4.32.025 2.153.067 6.45c.116 11.521.36 23.035.702 34.552l.134 4.6q.146 4.982.304 9.962l-2 1c-2.598-2.017-4.696-3.684-5.461-6.995-.154-2.474-.157-4.907-.107-7.385l-.002-2.84c.004-3.09.043-6.178.082-9.268q.013-3.217.021-6.436c.02-5.64.068-11.28.124-16.921.05-5.758.074-11.516.099-17.274.053-11.294.139-22.587.244-33.881h2z"/><path fill="#535050" d="M49 74h3v4l4-1 1 36V79l3-1q.074 7.23.11 14.46.015 2.453.04 4.907c.175 16.735.175 16.735-2.15 24.633h-2l-1-4-5 4v-2l-3-1q.177-8.89.372-17.78.065-3.024.125-6.05.088-4.344.187-8.69l.05-2.737.06-2.547.048-2.24C48 77 48 77 49 74"/><path fill="#4D4347" d="M534 49h1c.855 9.953 1.136 19.82 1.098 29.805l-.005 4.379q-.006 5.686-.024 11.372-.014 5.834-.02 11.667-.016 11.389-.049 22.777l1.813-1c2.187-1 2.187-1 5.187-1l-.095-2.048a590 590 0 0 1-.28-9.202l-.152-3.223c-.056-2.955-.037-5.625.527-8.527 3.136-3.024 4.651-4 9-4-.375 1.938-.375 1.938-1 4l-2 1-.06 1.74a1504 1504 0 0 1-.315 7.885c-.03.904-.062 1.807-.094 2.738-.212 4.836-.462 9.175-2.531 13.637-3.71 2.473-5.61 2.385-10 2-2.375-1.062-2.375-1.062-4-3-1.06-5.423-1.132-10.717-1.098-16.215l.005-2.593c.005-2.71.018-5.42.03-8.13q.009-2.77.014-5.54.017-6.762.049-13.522l2 2z"/><path fill="#BE5E68" d="M267 71h18l.076 5.077q.142 9.315.296 18.63.066 4.032.125 8.065.088 5.794.187 11.587l.05 3.65.06 3.396.048 2.988A28.4 28.4 0 0 0 287 131l3.938-.375c.73-.07 1.461-.14 2.214-.21L295 130c1.266-2.532 1.16-4.35 1.205-7.184l.06-3.276.051-3.548.063-3.623q.097-5.747.183-11.494l.131-7.777q.162-9.549.307-19.098h1q.106 11.095.155 22.192c.016 3.435.037 6.87.071 10.304.04 3.947.054 7.893.067 11.84.015 1.236.03 2.473.047 3.747v3.458l.02 3.055L298 131c-3.314 2.21-4.345 2.225-8.187 2.125l-2.731-.055L285 133v-2h-2c-1.741-3.021-2.25-5.187-2.243-8.66l-.01-2.781.023-2.977v-3.07q.006-3.206.024-6.412c.018-3.285.02-6.57.02-9.856q.007-3.113.018-6.224l.003-2.996.02-2.751.011-2.433C281 81 281 81 282 80v-5l-13-2v55h-1z"/><path fill="#C85F6B" d="M296 71h15c4.187 4.187 4.853 5.008 5.12 10.455l-.006 2.773v3.153l-.016 3.385-.005 3.48c-.005 3.668-.018 7.336-.03 11.004q-.008 3.73-.014 7.46-.017 9.146-.049 18.29c3.434-.315 3.434-.315 7-1 3.846-4.872 3.691-11.02 4-17h1v18c-7 4-7 4-9.398 3.875l-1.977-.875-2.023-.812c-2.136-1.584-2.13-2.595-2.602-5.188a118 118 0 0 1-.205-5.411l-.06-3.275-.051-3.517-.063-3.615q-.097-5.715-.183-11.432l-.131-7.75q-.16-9.5-.307-19h-14v54h-1z"/><path fill="#554D50" d="M467.875 31.375C470 33 470 33 471 35c.404 5.255-.305 8.472-3 13-1.642 1.642-3.492 1.288-5.75 1.375-3.846-.05-5.017-.218-8.312-2.437C451.618 43.42 451 41.21 451 37c1.214-2.876 2.261-4.446 4.75-6.312 4.386-1.34 7.983-1.294 12.125.687"/><path fill="#595256" d="M216 111a69 69 0 0 1 3.813 6.625l1.021 1.832c1.779 3.484 2.423 5.791 1.365 9.504L221 132c-8.3.902-8.3.902-12.187-1.16-2.938-2.393-4.563-4.075-5.75-7.715L203 121l4 1-1-6h-2v-2h2l1-2 2 1 1-2c3-1 3-1 6 0"/><path fill="#4B4246" d="M614 83h1v8h-2l1 3-2.437-.062c-2.497-.234-2.497-.234-3.563 1.062v2h17l1-4h2c.75 2.75.75 2.75 1 6-2.04 2.712-3.23 3.866-6.61 4.454l-2.925-.063-3.201-.04-3.327-.101-3.337-.055a659 659 0 0 1-6.12-.132A214 214 0 0 0 598 103l-2 3v-6l2-1-2-5 1-1 1-3 11-1v-1h5z"/><path fill="#D9A1A7" d="M266 70h20v57h-1V71h-18l.494 5.257c.517 6.226.636 12.39.604 18.634l-.005 3.244c-.005 3.372-.018 6.743-.03 10.115q-.008 3.459-.014 6.918-.017 8.415-.049 16.832c-2.709 1.354-5.01 1.065-8 1l-1-2 5-1 .076-3.893q.144-7.254.296-14.51.065-3.12.125-6.24c.23-11.817.595-23.57 1.503-35.357"/><path fill="#B4535E" d="M335 23c5.232 2.865 7.413 7.849 10 13 3.135-.551 5.446-1.207 8.375-2.562C357.211 31.916 359.916 31.75 364 32l-3 1-.375 1.875C360 37 360 37 357.625 38.75 355 40 355 40 352 40v2c-4.285.775-7.81 1.396-12 0-2.816-2.816-2.858-5.1-3-9l1-2c-3-1.333-3-1.333-6 0-2.043-.996-2.043-.996-4.187-2.437l-2.168-1.434L324 26c3.513-3.372 6.237-3.585 11-3"/><path fill="#575254" d="m136 58 1 2h-3 4l1 2-1 3h2v2l-3 1 1 3 6-1c-1.426 2.852-3.628 3.496-6.406 4.902-1.926 1.091-1.926 1.091-2.594 4.098h-2l-1-3-2.375 1C127 78 127 78 125 78l-.375-2.937L124 72l-2-1-1 2c0-3.292.458-5.375 2.637-7.887 3.848-3.496 7.186-5.948 12.363-7.113"/><path fill="#3E3637" d="M546 29c2 2 2 2 2.211 5.186a296 296 0 0 1-.05 4.103l-.017 2.23c-.017 2.37-.048 4.738-.082 7.106q-.055 4.612-.09 9.227l-.016 2.291c-.02 7.645.454 15.238 1.044 22.857l-3-1v-3l-2-1c-1.028-5.78-1.135-11.456-1.098-17.312l.005-2.59c.005-2.699.018-5.398.03-8.098q.009-2.764.014-5.527.017-6.736.049-13.473z"/><path fill="#423A3C" d="M657 72h2l1 45 3 1c-3.713 2.338-4.194 1.961-9 1V74h2l1 3z"/><path fill="#D25C6B" d="M345 114c4.386 6.579 2.336 18.39 1 26-1.437 3.188-1.437 3.188-3 5h-2v2l-9 2-1 9c2.962-.227 5.917-.48 8.875-.75l2.55-.187 2.442-.235 2.254-.19c2.063-.473 2.063-.473 3.012-2.557L351 152a91 91 0 0 1 4-4l2-2c-.636 3.138-1.708 5.521-3.375 8.25l-1.273 2.14L351 158h-3v2h-18c-2.293-4.585-2.132-6.122-1-11 1-2.312 1-2.312 3-4 2.964-.921 5.937-1.512 9-2l.313-3c.397-2.944 1.012-4.741 2.25-7.562 2.389-5.857 1.672-12.233 1.437-18.438"/><path fill="#443B3E" d="M17 33c.925 16.344 1.122 32.631 1 49h-3v-2h-2c-.107-15.368-.136-30.668 1-46 2-1 2-1 3-1"/><path fill="#514045" d="m41 71 4 1v4l2 1v3l1 1c.138 2.547.213 5.065.238 7.613l.025 2.321q.02 2.437.032 4.875c.017 2.483.061 4.964.105 7.447q.015 2.366.026 4.732l.053 2.248c-.015 3.62-.19 5.408-2.506 8.265L44 120l-2-1-1 2v-2l-3-1 3-1c2.217-4.004 2.258-7.66 2.266-12.172l.005-2.066q.002-2.158-.01-4.317c-.01-2.174 0-4.348.012-6.523C43.28 84.707 42.976 77.994 41 71"/><path fill="#43373D" d="m98 75 2 1c1.207 3.621 1.181 6.966 1.203 10.738l.017 2.298q.015 2.408.02 4.814c.01 2.443.04 4.885.073 7.328q.009 2.343.015 4.685l.038 2.198c-.02 4.702-.767 7.997-3.366 11.939-3.187.875-3.187.875-6 1v-2l-3-1 7-3c1.19-8.416.928-16.652.563-25.125q-.081-2.028-.159-4.055Q96.212 80.91 96 76z"/><path fill="#4A3F43" d="M588 78c1.56 3.12 1.121 6.43 1.098 9.852l-.005 2.345c-.005 2.476-.018 4.952-.03 7.428q-.009 2.516-.014 5.031-.017 6.173-.049 12.344l-3 1v-2h-2V79c2-1 2-1 4-1"/><path fill="#C24D5C" d="M308 14c4.75 4.21 6.353 8.974 8 15l2.875-1.5C322 26 322 26 324 26v5c-4.51 1.367-7.62.6-12-1l-1-2-4-2v-9l-1.5 1.375c-2.847 1.85-5.314 2.477-8.598 3.195-2.108.443-2.108.443-4.902 1.43 0-2 0-2 1-3h-7l1-4 1 2c3.514-.429 6.193-1.088 9.438-2.562 3.97-1.602 6.334-2.143 10.562-1.438"/><path fill="#54474B" d="M616 112c7.38-.484 7.38-.484 10 1.563 1.4 3.412 1.442 5.773 1 9.437-2.467 5.606-6.306 7.595-11.562 10.215-2.66.857-3.858.746-6.438-.215h2v-2h-9c3.23-3.23 7.549-3.264 11.934-4.121 3.113-.892 3.971-1.58 6.066-3.879h3l-1-1.812C621 119 621 119 621 116l-5 1z"/><path fill="#CA5762" d="M272 73q2.718-.04 5.438-.062l3.058-.036C283 73 283 73 284 74c.094 1.75.117 3.502.114 5.254v3.397l-.016 3.697-.005 3.762q-.007 4.959-.024 9.918-.014 5.057-.02 10.115-.017 9.929-.049 19.857h2l-1 3v-2h-2c-1.741-3.021-2.25-5.187-2.243-8.66l-.01-2.781.023-2.977v-3.07q.006-3.206.024-6.412c.018-3.285.02-6.57.02-9.856q.007-3.113.018-6.224l.003-2.996.02-2.751.011-2.433C281 81 281 81 282 80v-5l-10-1z"/><path fill="#484044" d="m420 72 2 1a33313 33313 0 0 1 .573 21.734q.105 3.976.208 7.954l.067 2.46c.127 4.952.172 9.898.152 14.852h-5c-.196-3.625-.38-7.25-.562-10.875l-.17-3.129-.147-2.988-.143-2.761C417 98 417 98 418 96h2c-.485-4.646-.485-4.646-2-9 .25-2.565.56-5.079.938-7.625l.302-2.14q.373-2.618.76-5.235"/><path fill="#C36C75" d="M296 71h15c4.615 4.615 4.914 5.348 5.114 11.483q0 2.064-.016 4.126l-.005 2.203a2242 2242 0 0 1-.03 6.938q-.008 2.357-.014 4.715-.017 5.767-.049 11.535h-1l-.168-2.922q-.31-5.347-.632-10.695-.137-2.317-.27-4.636-.191-3.325-.395-6.65l-.117-2.105c.054-3.281.054-3.281-1.418-5.992v-5h-15v54h-1z"/><path fill="#4A3F41" d="M552 100c-.375 1.938-.375 1.938-1 4l-2 1-.06 1.74a1504 1504 0 0 1-.315 7.885l-.094 2.738c-.212 4.836-.462 9.175-2.531 13.637-3 2-3 2-6 2l1-6h2l-.095-2.048a590 590 0 0 1-.28-9.202l-.152-3.223c-.056-2.955-.037-5.625.527-8.527 3.136-3.024 4.651-4 9-4"/><path fill="#5D5558" d="m534 26 4 1-1 2-3 1v56l-2 1c-.687-13.383-1.137-26.769-1.232-40.169a581 581 0 0 0-.051-4.277 531 531 0 0 1-.045-6.042l-.028-3.517c.388-3.263 1.148-4.618 3.356-6.995"/><path fill="#474145" d="m422 29 1 3h4l-1 3h-2c-1.205 4.892-1.335 9.803-1.562 14.813l-.131 2.677q-.158 3.255-.307 6.51l-2 1-1-11v9l-3-1c.11-3.584.24-7.167.375-10.75.03-1.016.062-2.032.094-3.078l.117-2.969.095-2.73c.339-2.626.887-4.254 2.319-6.473z"/><path fill="#423B3F" d="M456 63c2.35 3.526 2.244 4.952 2.227 9.124v3.821l-.032 4.13-.008 4.224c-.008 3.704-.028 7.408-.05 11.111-.02 3.78-.03 7.561-.04 11.342-.02 7.416-.055 14.832-.097 22.248h2v2h-4z"/><path fill="#DA8890" d="M327 75h1q.037 7.815.055 15.631.008 2.652.02 5.304c.127 26.262.127 26.262-3.075 31.065a5701 5701 0 0 1-.11-21.252q-.015-3.617-.04-7.235c-.025-3.46-.036-6.92-.045-10.38l-.032-3.283v-3.033l-.014-2.678C325 77 325 77 327 75"/><path fill="#4A3F43" d="M77.25 62.313 79 63l-2 4h-3l.59 1.734c.49 2.712.023 3.996-1.028 6.516l-.87 2.14L72 79h2l-1 3h-1l-1 22h-1l-1-15h-1c-1.582-8.582-.762-16.046 3-24 3.28-3.1 3.28-3.1 6.25-2.687"/><path fill="#FADEE1" d="M364 77h1l1 12h3v-2h2c-1.068 5.114-2.231 10.072-4 15h-1v-8c-3.796.542-5.472 2.201-8 5 .497-6.343 1.385-17.385 6-22"/><path fill="#B95463" d="M294 140v2l-1.871.008c-7.159.327-11.69 2.353-17.129 6.992a333 333 0 0 0-3.312 3.875c-2.322 2.503-3.349 3.077-6.79 3.566A87 87 0 0 1 256 156l2-3h8l2-3h2v-4l3-1 1.816-1.98c2.705-2.502 4.507-2.808 8.122-3.333l3.09-.488c2.902-.194 5.167.083 7.972.801"/><path fill="#463E40" d="M467 75c1.484 1.086 1.484 1.086 3 3 .328 3.102.328 3.102.25 6.625-.015 1.168-.03 2.336-.047 3.54C470 91 470 91 469 92a123 123 0 0 0-.562 5.563l-.254 3.066L468 103h-3c-1.253-3.88-1.184-7.779-1.187-11.812l-.038-2.08c-.013-4.734.681-8.626 2.225-13.108z"/><path fill="#FCDFE2" d="M321 68c3.262 4.113 4.124 7.05 4.145 12.266l.02 3.256.003 3.513.01 3.605q.007 3.774.007 7.548c.002 3.862.02 7.725.04 11.587q.005 3.662.005 7.323l.022 3.52-.01 3.246.005 2.866C325 129 325 129 323 131c-3.625.125-3.625.125-7 0v-3l2.438.063c2.496.233 2.496.233 3.562-1.063.16-2.006.252-4.017.316-6.027l.128-3.817q.06-2.046.118-4.094l.063-2.063c.14-4.666.262-9.332.375-13.999l.075-3.07q.078-3.683.113-7.368l.042-3.996c-.243-3.773-1.142-6.957-2.23-10.566z"/><path fill="#483C40" d="M619 60c10.02 8.236 10.02 8.236 11 14a157 157 0 0 1-.437 7.75l-.159 2.113A942 942 0 0 1 629 89l-1-4h-2l.188-2.5c-.235-4.382-1.514-7.455-3.188-11.5l-3 1 .25-2.187c-.324-3.648-1.823-5.159-4.25-7.813z"/><path fill="#423B3B" d="M53 67c3.204 3.204 4.267 5.602 5 10l2 1-3 1 1 35-2 1-1-37h-3v-4l-5 1-1-3 3-3h-3v-2c2.792-1.396 4.061-.98 7 0"/><path fill="#BB5561" d="M335 23c3.226 2.08 4.867 3.8 7 7 .195 2.7.195 2.7.125 5.688l-.055 3.011L342 41l-4-1c-1.125-6.75-1.125-6.75 0-9-3-1.333-3-1.333-6 0-2.043-.996-2.043-.996-4.187-2.437l-2.168-1.434L324 26c3.513-3.372 6.237-3.585 11-3"/><path fill="#4B4545" d="M21 27c2.438.375 2.438.375 5 1 1.257 2.515 1.292 4.533 1.5 7.34l.25 3.22.25 3.377q.245 3.296.5 6.59l.219 2.961c.206 2.636.206 2.636 1.281 5.512h3v2h5v2c-3.632 1.21-5.065.628-8.687-.437L26.3 59.69 24 59l1-2c.116-4.335-.098-8.667-.25-13l-.082-3.68-.121-3.508-.099-3.23L24 31l-3-2z"/><path fill="#4A3F41" d="M664 121h7c1.444 2.889 1.377 4.796 1 8-1.937 2.875-1.937 2.875-5 5-4.725.803-7.979.68-12-2l2-4c7.875.875 7.875.875 9 2l-.562-2.375C665 125 665 125 666 123h-2z"/><path fill="#4C4044" d="m105 121 2 1c-1.452 6.41-1.452 6.41-3.687 8.813-5.9 3.029-11.783 3.822-18.313 3.187-3.062-1-3.062-1-5-2v-2c5.625-1.125 5.625-1.125 9 0l2.938-1c3.047-.995 4.15-1.12 7.062 0v-2h3v-5z"/><path fill="#BB898F" d="M280 60v1l-22 1-1 66h-1l-1-68c6.725-3.363 17.753-.708 25 0"/><path fill="#FACED2" d="M295 70h14v1h-13l.016 5.4q.023 8.812.036 17.626.007 5.345.023 10.691c.013 4.093.018 8.186.023 12.28l.015 3.894v3.58l.007 3.169C296 130 296 130 295 131c-2.67.141-5.324.042-8 0v-2l7-2z"/><path fill="#5C5154" d="M29 77h1v40h-2v-6h-2V97h2l-.016-1.728q-.029-3.855-.047-7.71l-.025-2.72-.01-2.588-.016-2.396C28 78 28 78 29 77"/><path fill="#5F5455" d="M187 107h2q.08 4.594.125 9.188c.017.864.034 1.728.05 2.619.065 8.336.065 8.336-2.175 12.193-2.125.813-2.125.813-4 1l-1-5h2l-.105-2.344c-.174-6.693.294-11.566 3.105-17.656"/><path fill="#645353" d="M60 78v35h-3V79c2-1 2-1 3-1"/><path fill="#50474A" d="M519 106c1.875 1.125 1.875 1.125 3 3 .188 3.188.188 3.188 0 6l-2 1-1-3c-3-1.709-3-1.709-6-3l-.437 3.375C512 117 512 117 511 119l-6-1c.76-1.63 1.534-3.254 2.313-4.875l1.3-2.742c2.62-4.5 5.499-4.892 10.387-4.383"/><path fill="#C96F7B" d="M340 92c3.143 3.466 3.72 6.635 4.5 11.188.782 4.37 1.634 8.577 3.188 12.75 2.474 6.954 1.3 13.105-.688 20.062h-1l.07-3.945q.029-2.59.055-5.18c.017-.856.034-1.712.05-2.594.038-4.847-.28-8.728-2.175-13.281h-2c-2.308-6.348-2.198-12.295-2-19"/><path fill="#CA505E" d="m368 168 3 1c-1.914 12.657-1.914 12.657-5 17-2.562.938-2.562.938-5 1l-2-1c.373-3.125.85-6.061 2-9 2.896-1.508 4.77-2 8-2l-2-2c.375-2.625.375-2.625 1-5"/><path fill="#545152" d="M216 111c1.676 2.582 1.676 2.582 3.313 5.813l1.675 3.207c1.012 2.98 1.012 2.98.18 5.367L220 127l-.812-3.187c-1.056-3.388-2.235-5.884-4.188-8.813l-1.25 2.438C212 120 212 120 209.813 120.812L208 121l-2-5h-2v-2h2l1-2 2 1 1-2c3-1 3-1 6 0"/><path fill="#FCF3F4" d="M335 62c3.921 1.307 6.576 2.589 9 6 .565 2.775.59 5.228 0 8-2 2.5-2 2.5-4 4l-.375-1.937L339 76l-2-1c-1.902-4.439-2.192-8.203-2-13"/><path fill="#A65D67" d="M389.313 40.5c3.709.113 4.466.314 7.437 2.813 4.132 6.04 7.655 13.344 8.25 20.687h-2l-1-3h-3c-1-6.75-1-6.75-1-9l-1.937-.562C394 50 394 50 393.25 46.375L393 43h-10c2.359-2.359 3.076-2.37 6.313-2.5"/><path fill="#B35060" d="m310 153 4 1 .402 1.863.536 2.45.527 2.425c.534 2.407.534 2.407 1.535 5.262h-2l1 6 2.625-.187c3.817.212 6.086 1.307 9.375 3.187l-1 2c-1.586-.23-3.17-.485-4.75-.75l-2.672-.422c-3.328-1.069-4.538-1.964-6.578-4.828-.894-3.045-1.333-6.108-1.75-9.25l-.379-2.547c-.305-2.065-.59-4.134-.871-6.203"/><path fill="#CA4B5B" d="M231 143c5.298.46 9.602 1.886 14.492 3.957 2.334.97 4.678 1.795 7.07 2.606L256 151l1 3c-5.128 1.82-9.177-.14-14-2l1-2-2.336-.516-3.039-.734-3.023-.703C233 147 233 147 231.648 144.89z"/><path fill="#D25564" d="M384 44c3.1.013 6.004.167 9 1 1.875 2.875 1.875 2.875 3 6l1.586 1.266c2.247 2.756 1.499 5.166 1.164 8.609l-.328 3.68A89 89 0 0 1 397 73h-1l.035-3.832.027-4.98.026-2.526.01-2.432.016-2.237c-.039-2.204-.039-2.204-1.114-4.993h-2l-1-4c-3.74.458-7.191 1.056-10.812 2.125C378 51 378 51 376 50l2-2h4v-2h2z"/><path fill="#493E42" d="M426 121c2 3 2 3 2 5l5 1v2l9 1-4 2 5 1v1c-6.554.583-12.12-1.088-18-4-2.687-2.75-2.687-2.75-4-5z"/><path fill="#FAD6D9" d="M337.938 59.625C341 60 341 60 342.875 61.75 344 64 344 64 344 68c-3.361-1.12-4.575-2.497-7-5l-2-1c.185 4.342.185 4.342 2 8 .04 1.666.043 3.334 0 5h2l1 13c-4.726-7.089-8.166-17.501-7-26 2-2 2-2 4.938-2.375"/><path fill="#D55663" d="m323 64 2 1v2h2c2.124 5.298 2.474 10.182 2.688 15.813l.122 2.933c.475 14.415-.228 28.85-.81 43.254h-1V75h-2a480 480 0 0 1-1.5-3.812l-.844-2.145C323 67 323 67 323 64"/><path fill="#D15471" d="M278 14c5.75-.125 5.75-.125 8 1v5l8-1v2l-3.375 1.188c-2.945 1.237-3.484 1.548-5.062 4.5L285 29h-1l-.375-2.437L283 24l-2-1v-3h-2z"/><path fill="#C36B72" d="m361 120 2 1c.326 5.435-.566 8.222-3 13a203 203 0 0 0-1.437 6c-1.143 4.835-2.317 8.23-5.563 12h-2l-1 4-5 1c1.076-2.836 1.776-3.868 4.438-5.437 3.799-2.317 5.146-5.228 6.453-9.426l.714-3.094.791-3.37c.262-1.15.523-2.3.791-3.486l.827-3.544q1.004-4.32 1.986-8.643"/><path fill="#C76D76" d="M367 60q2.938-.04 5.875-.062l3.305-.036C379 60 379 60 381 61v2h-2v11h-2v9l-4 2c-.29-4.732.206-7.768 2.266-12.023 1.421-3.827 1.498-7.93 1.734-11.977l-9 1z"/><path fill="#483E3D" d="M161 99c1.858 3.135 2.201 5.375 2 9l2 1-2 12h-2l-1 3-4-2 3-1 .076-1.804q.176-4.035.362-8.071l.119-2.84.127-2.715.11-2.507C160 101 160 101 161 99"/><path fill="#41383C" d="m41 71 4 1v4l2 1v3l1 1c.088 2.376.115 4.722.098 7.098l-.005 2.148c-.005 2.272-.018 4.544-.03 6.817q-.008 2.306-.014 4.61Q48.032 107.338 48 113h-1l-2-27h-1q-.755-2.905-1.5-5.812l-.844-3.27C41 74 41 74 41 71"/><path fill="#BE7B82" d="M302 71c8.109-.624 8.109-.624 11.5 1.75 2.907 4.36 2.635 8.76 2.598 13.86l-.005 2.202a2242 2242 0 0 1-.03 6.938q-.008 2.357-.014 4.715-.017 5.767-.049 11.535h-1l-.136-2.826q-.262-5.232-.554-10.461a720 720 0 0 1-.23-4.513 707 707 0 0 0-.35-6.516l-.206-3.952c-.588-4.186-1.599-6.989-3.524-10.732-2.781-1.228-4.895-.95-8-1z"/><path fill="#C06C76" d="M361 81c1.103 3.31.9 4.195.004 7.45l-.693 2.568-.748 2.67-.737 2.705Q357.924 99.699 357 103h-3c-2.455-5.123-3.503-9.339-4-15l4 1 .375 3.438L355 96l2 1 .313-3.5c.547-4.512 1.964-8.306 3.687-12.5"/><path fill="#443E41" d="M650 29h2l1 3c-1.375 1.5-1.375 1.5-3 3h-2l.105 3.395q.043 2.209.082 4.417l.077 2.237c.075 5.563.075 5.563-1.782 7.688L645 54q-.042-4.656-.062-9.312l-.026-2.67-.01-2.569-.016-2.364C645 35 645 35 646 32l3-1z"/><path fill="#4B4243" d="M465 104h4v17c-5-4-5-4-6-6-.281-4.221.199-7.173 2-11"/><path fill="#AF545F" d="M310 17c2.679 2.319 3.662 4.318 4.688 7.688.25.808.502 1.616.761 2.449L316 29l2.875-1.5C322 26 322 26 324 26v5c-4.535 1.374-7.63.748-12-1-2.5-2.375-2.5-2.375-4-5 .25-2.312.25-2.312 1-4h2z"/><path fill="#FFE9EB" d="M257 72h1v55l6 1v2c-2.375.625-2.375.625-5 1-2-2-2-2-2.24-4.404l.013-3.055v-3.458l.032-3.747.008-3.825q.016-5.035.05-10.071c.02-3.426.03-6.85.04-10.276Q256.935 82.082 257 72"/><path fill="#50474A" d="M559 104c1.109 3.326 1.542 6.53 2 10h2v4h2l-1 4c-4.829-3.512-8.306-7.125-10-13 .402-2.246.402-2.246 1-4z"/><path fill="#493E41" d="M213 70h5c-1.833 4.124-3.237 6.527-7 9q-1.536 1.37-3.062 2.75L205 84l-3-1v-3c2.532-2.357 3.472-3 7-3v-4h3z"/><path fill="#CF5A67" d="M368 56q2.471.423 4.938.875l2.777.492L378 58l1 2h-12l-.332 3.578-.48 4.672-.213 2.355c-.456 4.268-.84 7.2-3.975 10.395.221-3.232.482-6.46.75-9.687l.188-2.764C363.404 63.198 363.96 59.9 368 56"/><path fill="#605153" d="m546 32 2 1v23h-2l-1 4q-.042-6.437-.062-12.875l-.026-3.707-.01-3.535-.016-3.27C545 34 545 34 546 32"/><path fill="#D7858C" d="M267 83h1v49c-2.709 1.354-5.01 1.065-8 1l-1-2 7-3z"/><path fill="#C46C75" d="M370 90h1c.6 8.463-.922 15.126-4 23h-2l-1 5c-1.581-4.024-.388-7.143.75-11.187l.56-2.01A247 247 0 0 1 370 90"/><path fill="#4A4041" d="M200 86c2.36 2.36 2.491 3.779 3 7h3l.938 3.313A170 170 0 0 0 209 103l-4 1v-2h-2l-1-6h-2c-1.765-3.088-2-4.233-2-8h2z"/><path fill="#CD5A65" d="M297 74h1q.106 11.095.155 22.192c.016 3.435.037 6.87.071 10.304.04 3.947.054 7.893.067 11.84.015 1.236.03 2.473.047 3.747v3.458l.02 3.055L298 131c-3 2-3 2-5.187 1.625L291 132l1.938-.875c2.214-.953 2.214-.953 3.062-3.125a99 99 0 0 0 .205-5.184l.06-3.276.051-3.548.063-3.623q.097-5.747.183-11.494l.131-7.777q.162-9.549.307-19.098"/><path fill="#483A3D" d="M546 56h2l-.035 1.625c-.094 8.154.47 16.246 1.035 24.375l-3-1v-3l-2-1q.212-4.125.438-8.25l.119-2.355.127-2.286.11-2.094c.213-2.081.651-4 1.206-6.015"/><path fill="#4A4243" d="m577 58 1 5-2 1v-2l-1.645.656-2.168.844-2.144.844C568 65 568 65 565 65v-2l-2-1c4.426-4.569 8.02-4.469 14-4m-14 7 2 1h-3z"/><path fill="#4D3E43" d="m489 82 3 1-.062 3.438c-.354 3.378-.354 3.378 1.062 4.562.072 2.02.084 4.042.063 6.063l-.028 3.347L493 103l-4-1z"/><path fill="#4E4143" d="m160 76 3 1 1 9h1c.286 7.429.286 7.429-2 11l-3-1z"/><path fill="#494043" d="M561 92c4.961 2.067 6.294 5.057 8.3 9.746.7 2.254.7 2.254.7 6.254l-6-2-.312-3.375L563 99l-3-2z"/><path fill="#4F484B" d="M211 59c-.79 3.947-2.096 7.454-4 11-3.062 1.5-3.062 1.5-6 2l-2-1c1.347-2.934 2.886-5.25 5-7.687l1.563-1.825C207.367 59.62 208.384 59 211 59"/><path fill="#524347" d="m109 97 4 1q.08 3.656.125 7.313l.05 2.091c.037 3.767-.031 5.38-2.175 8.596h-2z"/><path fill="#4E4446" d="m433 112 .688 1.875c1.156 2.357 1.156 2.357 3.812 3.063 2.5 1.062 2.5 1.062 3.813 3.687L442 123l3-1v2c-3.422 1.14-4.262.835-7.562-.312l-2.38-.801C433 122 433 122 431 120v-4h2z"/><path fill="#F9CAD0" d="m341 147-1 3-6-1v7c6.063-.663 6.063-.663 12-2l-1 3c-3.032 1.195-6.025 1.105-9.25 1.063l-2.703-.028L331 158q-.04-2.22-.062-4.437l-.036-2.497C331 149 331 149 332 148c6.111-1 6.111-1 9-1"/><path fill="#D5535E" d="M281 81h1l.076 3.421q.144 6.347.296 12.692.065 2.735.125 5.47.089 3.954.187 7.91l.05 2.428c.147 5.729.628 11.385 1.266 17.079h2l-1 3v-2h-2c-1.749-3.03-2.246-5.192-2.227-8.677v-2.79l.032-2.986.008-3.077c.011-3.24.037-6.48.062-9.72q.016-3.297.027-6.594.034-8.077.098-16.156"/><path fill="#605759" d="M187 64h1c1.36 6.626 1.701 13.407 0 20l2-1-1 3-3 1c-2.619-3.928-2.29-7.434-2-12l2-3c.451-2.05.451-2.05.625-4.187z"/><path fill="#C0626D" d="M361 33c2.188-.375 2.188-.375 5 0 3.41 3.41 5.502 6.37 7 11l-5 1v-5h-2v-2l-2.937-.375L360 37l-1-2h2z"/><path fill="#4F474B" d="M418 33h3a88 88 0 0 1 1 5l-1 1a104 104 0 0 0-.562 5.063l-.254 2.785L420 49h-1v9l-3-1c.138-3.625.287-7.25.438-10.875l.119-3.129.127-2.988.11-2.761C417 35 417 35 418 33"/><path fill="#B74856" d="M258 16h3c-.875 5.75-.875 5.75-2 8h-2l-1 5-4-2-.375 3.313C251 34 251 34 249 37c.591-4.828 1.348-9.412 3-14l3-1c1.709-3 1.709-3 3-6"/><path fill="#BF5766" d="M375 153c-.42 5.605-.916 10.72-3 16h-3v-3h2c-.379-3.29-.379-3.29-2-6-.04-2-.043-4 0-6 2.076-.553 3.844-1 6-1"/><path fill="#453A3C" d="m621 125 2 1c-3.024 3.175-6.359 5.572-10 8-2.187-.375-2.187-.375-4-1h2v-2h-9c2.76-2.76 5.798-2.985 9.5-3.687l2.09-.432c5.153-1.01 5.153-1.01 7.41.119z"/><path fill="#4F4243" d="M55 116c2.172 3.258 2.46 4.224 2 8-1.5 2.313-1.5 2.313-3 4l-6-2v-5h3l2-3h2z"/><path fill="#C84555" d="M280 137a711 711 0 0 1 6.813-.125l3.832-.07C294 137 294 137 297 139l-2 4-1-3c-6.013.58-12.009 1.223-18 2v-2l4-1z"/><path fill="#B35663" d="M231 94h1c.369 13.633.369 13.633-2 20l-3-1-1 2c.5-7.494 2.438-13.957 5-21"/><path fill="#4B4346" d="m595 59 5 2c-1.686 2.573-2.95 3.97-5.625 5.563-2.68 1.271-2.68 1.271-3.375 4.437l-3-1c1.145-5.413 2.34-7.934 7-11"/><path fill="#C65865" d="M356 146c1 3 1 3-.11 5.262l-1.64 2.425-1.61 2.45c-.54.615-1.082 1.23-1.64 1.863h-3v2h-15v-1l3.21-.621 4.165-.816 2.117-.409c3.864-.731 3.864-.731 7.508-2.154l1-3a181 181 0 0 1 4-4z"/><path fill="#C85162" d="M239 84c.976 2.928 1.082 4.956 1 8h-2v3h-2l-.375 2.125c-.663 3.052-1.597 5.928-2.625 8.875l-2-1q.173-2.688.375-5.375c.07-.998.14-1.995.21-3.023C232 94 232 94 234 92l3 1-.125-3.375C237 86 237 86 239 84"/><path fill="#FAD8DE" d="M348 117c3 1 3 1 4 3 .281 5.531-.253 9.758-2 15h-2l-2 4 .438-2.02c1.359-6.75 1.801-13.103 1.562-19.98"/><path fill="#463B3E" d="m623 118 4 1c-.276 3.958-.74 5.7-3.375 8.75C621 130 621 130 618 132c-2.187-.375-2.187-.375-4-1 5.75-3 5.75-3 8-3-1.15-1.298-1.15-1.298-4-2l2-3h3z"/><path fill="#45373C" d="M147 74h4v4l.563 3c.409 2.807.35 4.364-.563 7h-2l1 13-2 1z"/><path fill="#F6D7D8" d="m367 61 3 1c.346 5.654-.566 9.03-3 14h-2c-.369-10.558-.369-10.558 2-15"/><path fill="#4E4349" d="M505 69c2.915 1.074 4.778 1.778 7 4 .125 3.625.125 3.625 0 7h-2l-1 2c-4.592-8.262-4.592-8.262-4-13"/><path fill="#595055" d="m635 58 3 1-2 4h2l2 4-2 3 2 1h-3l-2-2h-2c-1.354-6.4-1.354-6.4.438-9.437z"/><path fill="#473B3E" d="M531 123h3c2 2 2 2 2 6l5-2 1 3-2 3c-5.75-.75-5.75-.75-8-3-.4-2.323-.74-4.657-1-7"/><path fill="#50454A" d="m69 120 5 1v2h2l1-2 3 2-2 4 2 3-3 1c-5.802-5.645-5.802-5.645-8-9z"/><path fill="#4C4245" d="M520 69c2 3 2 3 2 6h2l-1 7-5-1a280 280 0 0 1-.125-4.312l-.07-2.426C518 72 518 72 520 69"/><path fill="#B65260" d="m236 80 3 2-2 11-5 1q.428-2.377.875-4.75l.492-2.672c.601-2.447 1.413-4.384 2.633-6.578"/><path fill="#443739" d="m464 34 4 1q.079 2.374.125 4.75l.07 2.672c-.204 2.692-.83 4.277-2.195 6.578l-2-1a225 225 0 0 0-6-1v-2h4v-2h4z"/><path fill="#F7D2D3" d="M357 133c1.624 4.838-.131 8.453-2 13-1.687 3.063-1.687 3.063-3 5-1.419-2.837-.788-4.762-.312-7.875l.449-3.18c.979-3.34 2.233-4.728 4.863-6.945"/><path fill="#3E3437" d="m566 125 3 1v2l4-1v2h5v3c-6.193 1.191-6.193 1.191-9.375.438-2.422-2.143-2.354-4.317-2.625-7.438"/><path fill="#C57E85" d="M280 60v1l-22 1-2 10h-1V60c6.725-3.363 17.753-.708 25 0"/><path fill="#453A3D" d="M120 116h5v5l3 1-1 7c-4.436-3.518-5.52-7.754-7-13"/><path fill="#5C5354" d="M49 62c3.265.242 4.264 1.251 6.688 3.563C58.568 69.195 58.765 72.449 59 77l-2 1-.812-3.812c-.619-2.427-1.12-4.084-2.5-6.188-2.296-1.36-4.07-1.212-6.688-1v-2h2z"/><path fill="#4E4347" d="M658 39h1v19h7v2h2l-1 3-4-1-2.187-.437L659 61c-1.2-2.4-1.115-3.894-1.098-6.57l.01-2.715.025-2.84.014-2.863q.018-3.507.049-7.012"/><path fill="#4E4245" d="m458 30 1 2 3 2q-1.617 1.228-3.25 2.438l-1.828 1.37C454.937 39.04 453.28 39.562 451 40c.61-5.485.61-5.485 2.375-7.812C455 31 455 31 458 30"/><path fill="#5A3540" d="m221 125 2 1-2 6q-2.437.039-4.875.063l-2.742.035C211 132 211 132 209 131v-5l1.125 1.5c2.622 2.098 4.613 1.717 7.875 1.5v-3z"/><path fill="#4B4044" d="m570 74 4 2a317 317 0 0 1-3.25 3.438l-1.828 1.933C566.9 83.085 565.587 83.594 563 84v-4h2l.813-1.875C567 76 567 76 570 74"/><path fill="#C24555" d="M338 176q2.438.212 4.875.438c.905.08 1.81.162 2.742.246C348 177 348 177 350 178v2h-2l-1 2v-2l-2.812 1.125L341 182c-3-2-3-2-4-4z"/><path fill="#595456" d="M614 113h2v4l5-1v2c-5.422 1.971-9.375 2.25-15 1v-2l3.438-1.437c3.32-1.2 3.32-1.2 4.562-2.563"/><path fill="#4E4549" d="m509 109 4 1c-.875 6.75-.875 6.75-2 9l-6-1z"/><path fill="#4C4446" d="M79 80h1l.06 2.599q.118 4.785.257 9.571.058 2.07.105 4.138c.046 1.986.105 3.972.164 5.958l.095 3.618c.303 2.963.945 4.547 2.319 7.116l-1 2h-3z"/><path fill="#463D41" d="m669 64 1 3 3 1c-2.462 3.815-2.462 3.815-5.187 4.75L666 73l-1-3h-7v-1l9-2v-2z"/><path fill="#BD5A6C" d="M275 5c5.011 1.432 6.945 3.984 10 8l-1 2c-2.875-.187-2.875-.187-6-1-1.437-2.437-1.437-2.437-2-5l1-2-3-1z"/><path fill="#5E555B" d="m483 64 6 2-2 5-9 1c3.875-6.875 3.875-6.875 5-8"/><path fill="#AC5662" d="M243 54h1v15h-2v2h-3c.643-5.913 2.19-11.342 4-17"/><path fill="#514549" d="m520 120 2 3-5 6-5-1c3.826-6.609 3.826-6.609 8-8"/><path fill="#CF5463" d="M383 111c1.996 2.995 2.665 4.484 3 8-.937 2.813-.937 2.813-2 5h-3c-1.453-8.193-1.453-8.193.438-11.562.515-.475 1.03-.95 1.562-1.438"/><path fill="#554D51" d="M67 81h1l1 7h1v13l-3-1z"/><path fill="#403739" d="M597 74h2c1.329 4.576 1.263 9.409 0 14l-3 2q-.04-3.437-.062-6.875l-.036-3.867C596 76 596 76 597 74"/><path fill="#3F3439" d="M123 76q.118 2.437.188 4.875l.105 2.742L123 86l-3 2c-2-2-2-2-2.047-4.129l.297-2.433.266-2.442L119 77c2-1 2-1 4-1"/><path fill="#D3505B" d="M263 148h3v2l-1 1 1 3h-10v-3l-3-1 3.875.125c2.144.117 2.144.117 4.125-.125z"/><path fill="#D2737C" d="m378 71 1 3h-2v9l-4 2c-.296-5.025-.028-7.924 3-12z"/><path fill="#C44A59" d="M226 125h2c-.78 5.148-2.262 10.262-6 14l-2-7 1.875-1.812c2.262-2.196 2.262-2.196 4.125-5.188"/><path fill="#4D4A4E" d="m561 96 1 2 2 1c1.262 4.475 1.262 4.475 0 7l2 1h-7l-1-7h3z"/><path fill="#B9475A" d="m256 151 1 3c-5.128 1.82-9.177-.14-14-2v-1c4.63-1.016 8.345-.838 13 0"/><path fill="#433C3E" d="M44 111h2l2 5-4 4-2-1-1 2v-2l-3-1 3-1c1.709-3 1.709-3 3-6"/><path fill="#494246" d="M615 73c2.828 2.298 3.913 3.39 4.438 7.063-.47 3.147-.942 4.065-3.438 5.937-1.974-4.76-2.007-7.965-1-13"/><path fill="#443D3F" d="m459 58 7 1v5h-7c-1.125-3.75-1.125-3.75 0-6"/><path fill="#41363B" d="M77.313 62.188 79 63l-2 4h-3l1 2h-3l-1 5h-1c-.435-4.437-.475-6.367 2.25-10 2.75-2 2.75-2 5.063-1.812"/><path fill="#CE5866" d="m293 19 1 2-3.375 1.188c-2.945 1.237-3.484 1.548-5.062 4.5L285 29h-1l-1-8z"/><path fill="#C54855" d="M356.25 37.375 358 38c-3 2-3 2-6 2v2l-9 1-1-3 3.75-.375c2.545-.305 4.188-.594 6.5-1.75 1.75-.875 1.75-.875 4-.5"/><path fill="#3D3539" d="m534 28 4 1v2h-2l.07 2.484.055 3.266.07 3.234c-.19 2.94-.668 4.54-2.195 7.016q-.29-4.187-.562-8.375l-.17-2.406c-.381-5.992-.381-5.992.732-8.219"/><path fill="#BC6772" d="M316 62h4v2h3a506 506 0 0 1 2.063 5.313l1.16 2.988C327 75 327 75 326 78l-1.426-2.738-1.887-3.575-.935-1.802c-1.613-3.04-3.117-5.639-5.752-7.885"/><path fill="#51464B" d="M88 130v2l5 1v1c-4.921.167-8.503.248-13-2v-2c3.053-.981 4.947-.981 8 0"/><path fill="#6B585A" d="M213 110c4.043 1.348 4.416 3.07 6.313 6.813l1.675 3.207c1.012 2.98 1.012 2.98.18 5.367L220 127l-.625-2.937c-1.387-4.977-4.386-8.918-7.375-13.063z"/><path fill="#C15059" d="M386 104c1.063 1.813 1.063 1.813 2 4l-1 3 2 1-2 6c-2.497-2.6-2.99-3.895-3.312-7.562C384 107 384 107 386 104"/><path fill="#3E3032" d="M468 79h2q.039 2.969.063 5.938l.035 3.34C470 91 470 91 469 92a86 86 0 0 0-.562 4.563l-.254 2.503L468 101h-1c-.129-7.402.203-14.64 1-22"/><path fill="#43383C" d="m642 56 2 1v5c-2.709 1.354-5.01 1.065-8 1 .188-1.812.188-1.812 1-4 2.438-1.812 2.438-1.812 5-3"/><path fill="#4E4849" d="M186 41h1v6l2 1-2 1c-.69 2.58-.69 2.58-1.125 5.563l-.508 3.066L185 60h-1c-.982-4.053-1.082-7.839-1-12h2z"/><path fill="#463B3F" d="m558 110 1 2h2v2h2v4h2l-1 4c-4.7-2.892-4.7-2.892-5.555-6.047-.231-1.976-.346-3.966-.445-5.953"/><path fill="#3F2738" d="M99 99h1v14l-3-1a444 444 0 0 1-.125-5.375l-.07-3.023C97 101 97 101 99 99"/><path fill="#BB838A" d="M350 88h3l.113 2.117.2 2.758.175 2.742c.3 2.745.3 2.745 3.512 4.383l-1 4c-5.009-4.326-5.366-9.769-6-16"/><path fill="#C7767D" d="M333 70c2.231 3.347 3.385 6.716 4.625 10.5l.695 2.05c.973 2.936 1.68 5.337 1.68 8.45l-3-1-.367-1.977c-.747-3.893-1.503-7.632-2.758-11.398C333 74 333 74 333 70"/><path fill="#CB5567" d="M302 15h7l3 7h-3l1 5-3-1 1-10-7 1z"/><path fill="#B84455" d="M268 150h2v2h-2v4h-12l2-3h8z"/><path fill="#4C4043" d="M593 124c2.95 1.37 5.525 2.878 8 5v2c-3.375.188-3.375.188-7 0-2-3-2-3-1.625-5.187z"/><path fill="#524547" d="M194 75c2.063.438 2.063.438 4 1l-1 3c-6.111 3-6.111 3-9 3v-3c2.438-1.625 2.438-1.625 5-3z"/><path fill="#AD4B57" d="m399 54 4 1 2 9h-2l-1-3h-3c-1.044-3.133-.934-3.99 0-7"/><path fill="#443A3B" d="m433 112 .875 1.813c1.172 2.38 1.172 2.38 3.125 5.187v3l-5-1-1-5h2z"/><path fill="#6C6668" d="M531 88c3.572 5.358 3.122 10.766 3 17-1.488-1.05-1.488-1.05-3-3-.293-3.355-.293-3.355-.187-7.187l.082-3.856z"/><path fill="#D25366" d="M391 86c3 3.75 3 3.75 3 6l-3 1c-1.709 3-1.709 3-3 6-1.473-3.83-.5-6.289 1-10z"/><path fill="#D5525E" d="M382 61c1.184 3.552.695 4.698-.437 8.188l-.872 2.73L380 74h-1q-.118-2.686-.187-5.375l-.106-3.023L379 63zm-5 13 2 1-2 1z"/><path fill="#F8D3D8" d="M313 62c2.313.188 2.313.188 5 1 1.813 2.563 1.813 2.563 3 5l-5 2c-1.125-3.75-1.125-3.75 0-6l-3-1z"/><path fill="#5E555A" d="m445 60 3 1 1 3-4 4v-2l-4-1z"/><path fill="#D15662" d="M338 32h4v9l-4-1a177 177 0 0 1-1-7z"/><path fill="#D54958" d="m297 20 2 2c-4.24 3.876-4.24 3.876-7.687 4.438L289 26l-2-3 6.055-1.465c2.004-.483 2.004-.483 3.945-1.535"/><path fill="#464043" d="M654 108h1v8l3.438.375L662 117l1 2c-6.75 1.125-6.75 1.125-9 0z"/><path fill="#D16470" d="M327 113h1v18h-5l1.438-2.812c2.126-4.876 2.286-9.933 2.562-15.188"/><path fill="#514449" d="m217 121 3 1v4h-2v3l-6 1c1-2 1-2 4-3l-.062-2.437C216 122 216 122 217 121"/><path fill="#4B3E44" d="M628 76h2l-1 13-1-4h-2v-6h2z"/><path fill="#F7CECF" d="M344 71c1.708 1.634 2.935 2.87 4 5 .04 2 .043 4 0 6h-2c-2.68-4.019-2.156-6.242-2-11"/><path fill="#504648" d="M611 131v2c-3.013 1.507-5.683 1.178-9 1l-2-2c7.429-2.429 7.429-2.429 11-1"/><path fill="#433B3F" d="M202 115c1.875.125 1.875.125 4 1 1.25 3.063 1.25 3.063 2 6h-4c-1.46-2.647-2-3.894-2-7"/><path fill="#C77B85" d="M366 102h1v11h-2l-1 5c-1.38-3.767-.596-6.448.438-10.25l.87-3.266z"/><path fill="#53474A" d="m546 32 2 1v14h-1c-3.317-10.366-3.317-10.366-1-15"/><path fill="#BE5161" d="M227 121c.813 1.688.813 1.688 1 4-2.312 2.563-2.312 2.563-5 5l-2 3c.262-4.457.577-6.515 3.563-9.937z"/><path fill="#4C4144" d="M569 109c4.066 1.355 5.53 3.57 8 7l-1 3c-2.493-1.247-3.466-2.7-5-5v-2h-2z"/><path fill="#6A5B5D" d="M163 90c3.012 4.518 3.136 7.397 2.563 12.75l-.31 2.984L165 108h-2z"/><path fill="#605557" d="M206 96h2l6 13c-3.796-1.265-4.155-2.55-6-6l-1.187-2.125C206 99 206 99 206 96"/><path fill="#D1616B" d="m356 146 1 3c-1.215 2.262-1.215 2.262-2.937 4.688-.85 1.212-.85 1.212-1.715 2.449L351 158l-5-1 1.938-.812c2.393-1.075 2.393-1.075 3.062-4.188a181 181 0 0 1 4-4z"/><path fill="#514243" d="m465 128 1 4c-2.763 1.381-4.947 1.19-8 1l-2-2h4v-2l5 1z"/><path fill="#FCD1D7" d="M324 124h1c.125 2.375.125 2.375 0 5-2 2-2 2-5.625 2.125L316 131v-3c1.145.03 1.145.03 2.313.063 2.789.066 2.789.066 5.687-1.063z"/><path fill="#55484C" d="M624 122h2c-.08 2.795-.48 4.481-2.484 6.48-3.419 2.608-3.419 2.608-5.516 3.52-2.23-.367-2.23-.367-4-1 5.75-3 5.75-3 8-3z"/><path fill="#C14F5D" d="M369 44h4l-1 6h4v2c-1.666.043-3.334.04-5 0-1-1-1-1-1.062-3.562L370 46l-2-1z"/><path fill="#D45964" d="m375 84 1 3-1 1c-.393 1.679-.74 3.369-1.062 5.063l-.536 2.785L373 98h-1V85z"/><path fill="#4B4247" d="m44 71 4 1-1 3h2l-1 6h-3z"/><path fill="#494043" d="m507 59 8 3-2 3-7-2z"/><path fill="#BA5964" d="M369 37c1.892 2.386 3.024 4.072 4 7l-5 1-1-7z"/><path fill="#AB4854" d="m368 168 3 1c-.28 1.814-.575 3.626-.875 5.438l-.492 3.058L369 180l-2 1 .563-3.75c.394-3.056.386-5.284-.563-8.25z"/><path fill="#FADADD" d="M333 151h1v5c6.063-.663 6.063-.663 12-2l-1 3h-13z"/><path fill="#D37882" d="m266 128 2 4c-2.709 1.354-5.01 1.065-8 1l-1-2z"/><path fill="#CE7681" d="m361 120 2 1c.125 6.75.125 6.75-1 9h-3z"/><path fill="#423A3D" d="M587 118h4v6c-4.875-1.75-4.875-1.75-6-4h2z"/><path fill="#F1CED0" d="m345 106 4 2v6l-2 1c-1.858-3.135-2.201-5.375-2-9"/><path fill="#483E40" d="m195 105 3 1v2h3c.625 2.375.625 2.375 1 5l-2 2-1-5-3-1c-.687-2.062-.687-2.062-1-4"/><path fill="#524449" d="M418 101h1v5l4 1-3 1-1 8h-1z"/><path fill="#5F4F5C" d="M518 81h4l-1 3c-7.75 1.125-7.75 1.125-10 0v-2c1.454.03 1.454.03 2.938.063 2.937.293 2.937.293 4.062-1.063"/><path fill="#4C3D40" d="M147 74h4v9l-3 1z"/><path fill="#B94255" d="M364 182h3l-1 4c-4.75 1.125-4.75 1.125-7 0v-2l1.938-.437c2.037-.373 2.037-.373 3.062-1.563"/><path fill="#C44754" d="M239 146q2.126.429 4.25.875l2.39.492c2.328.625 4.25 1.481 6.36 2.633l-7 1-1-3-5-1z"/><path fill="#BE525F" d="m392 81 3 2-1 4h2l-1 5c-1.5-1-1.5-1-3-3-.273-2.718-.135-5.257 0-8"/><path fill="#C56974" d="M348 78c3 3 3 3 3.188 6.188L351 87l2 1h-4z"/><path fill="#4D404A" d="M632 64h1v5l3-1 1 3h3v2c-5.75-.75-5.75-.75-8-3-.125-3.125-.125-3.125 0-6"/><path fill="#494144" d="M211 59c-.25 1.875-.25 1.875-1 4-2.062 1.25-2.062 1.25-4 2v-4c3-2 3-2 5-2"/><path fill="#CE4F5D" d="M249 48h1c.286 7.429.286 7.429-2 11h-3l1-5h2z"/><path fill="#D14D5C" d="m324 26 3 1v2l2 1c-2 2-2 2-4.625 2.125L322 32v-3h2z"/><path fill="#A55462" d="m310 153 4 1-1 11h-1z"/><path fill="#F7D0D7" d="M348 128h2v7h-2l-2 4z"/><path fill="#523E48" d="m41 129 5 1v2l-9 2-1-2 6-1z"/><path fill="#3F2E32" d="M545 112c2.246 1.774 2.95 2.584 3.293 5.48l-.106 2.707-.082 2.731L548 125c-2-1-2-1-3-4a81 81 0 0 1-.062-4.687l.027-2.45z"/><path fill="#BF535E" d="M231 107h1a764 764 0 0 1-.437 4.375l-.247 2.46C231 116 231 116 230 118h-2v-2l-2-1c1-2 1-2 4-3z"/><path fill="#583E42" d="M453 96h1c1.19 5.38 2.292 10.453 2 16-3.131-3.386-3.336-5.711-3.187-10.25l.082-3.266z"/><path fill="#D06E7A" d="M330 150h1v8h7v1l-8 1c-1.238-3.576-.75-6.337 0-10"/><path fill="#595153" d="M532 126h2l.75 1.938c1.066 2.25 1.066 2.25 3.375 2.812L540 131v2c-5.75-.75-5.75-.75-8-3z"/><path fill="#36292C" d="M466 112h3v9c-3-3-3-3-3.187-6.187z"/><path fill="#3C3537" d="m509 109 4 1-1 7-2-1v-4l-2-1z"/><path fill="#F6B1B7" d="m367 61 2 1-3 12h-1c-.167-4.921-.248-8.503 2-13"/><path fill="#D5525F" d="m344 57 1 4-2.062-.937C339.63 58.866 336.485 58.41 333 58c3.77-2.564 6.674-1.832 11-1"/><path fill="#C95665" d="M274.063 6.938 277 7l1 7-1.75-1.875C274.198 10.187 272.566 9.1 270 8c1-1 1-1 4.063-1.062"/><path fill="#B75567" d="M303 144c5.625 2.25 5.625 2.25 8 6l-2 3z"/><path fill="#AC5561" d="m238 72 4 1a56.5 56.5 0 0 1-4 7l-2-2z"/><path fill="#524949" d="m556 73 4 2-1 2c-1.812.563-1.812.563-4 1l-2.25.563L551 79l1-3c2.063-.687 2.063-.687 4-1z"/><path fill="#5B5257" d="m492 73 1 2 4-2-2 6-5-2z"/><path fill="#3E3439" d="m669 64 1 3 3 1c-3 2-3 2-7 2 .375-2.437.375-2.437 1-5z"/><path fill="#5A5456" d="M498 57h10v2l-9 1z"/><path fill="#B33D47" d="M342 32c4 4.75 4 4.75 4 7l-4 1c-.981-3.053-.981-4.947 0-8"/><path fill="#BA505D" d="M324 26v5l-5 1c0-3 0-3 1.375-4.687C322 26 322 26 324 26"/><path fill="#AD6270" d="M275 5c3.337 1.173 5.774 2.189 8 5v2l-5-2V7l-4-1z"/><path fill="#CE7B85" d="m349 151 2 1-1 4-5 1c1.152-2.468 2.048-4.048 4-6"/><path fill="#4A3E42" d="m577 121 1 2h2l1 3-5 1-1-5z"/><path fill="#463A3F" d="m492 113 3 1-1 5-4-2v-3z"/><path fill="#BD515E" d="m232 96 2 1-1 9-2-1z"/><path fill="#A15663" d="M231 94h1c.295 5.023-.015 7.895-3 12-1.41-2.818-.509-4.173.438-7.125l.87-2.758z"/><path fill="#CA5C6C" d="M357 89c.981 3.053.981 4.947 0 8l-3-1v-5h2z"/><path fill="#473E40" d="M104 67h3c1.257 2.906 2 4.796 2 8h-2l-.375-2.437L106 70l-2-1z"/><path fill="#453E40" d="M468 62h1l1 10-2 1v-2l-2-1c0-2.884 1.06-5.295 2-8"/><path fill="#B14755" d="m373 44 1 2h3l-1 4h-4l-1-3h2z"/><path fill="#DF566A" d="M318 153c1.125 1.688 1.125 1.688 2 4-.875 2.75-.875 2.75-2 5h-1l-1-8z"/><path fill="#B04352" d="m251 151 1 3-9-2v-1c5.75-1.125 5.75-1.125 8 0"/><path fill="#FDDCE1" d="m257 127 7 1v2l-5 1z"/><path fill="#463B41" d="M72 125c3.796.542 5.472 2.201 8 5l-3 1a283 283 0 0 1-5-5z"/><path fill="#64595A" d="m440 118 6 2-1 4-3-1c-1.187-2.562-1.187-2.562-2-5"/><path fill="#473E3F" d="M161 89c2 2 2 2 2.125 5.125L163 97l-3-1c-.043-2-.04-4 0-6z"/><path fill="#D95464" d="M239 84c.976 2.928 1.082 4.956 1 8h-2v2l-3-1h2l-.125-3.375C237 86 237 86 239 84"/><path fill="#BA5C67" d="M394 44c2 1.75 2 1.75 4 4v4l-4-2z"/><path fill="#595156" d="M646 29h4l-1 3h-3l-1 3c-.625-1.875-.625-1.875-1-4z"/><path fill="#A54B5D" d="m286 16 2 2c1.993.024 1.993.024 4.125-.375L296 17l1 2c-3.674 1.176-7.17 1.074-11 1z"/><path fill="#B84F5F" d="m338 176 1 4-8-1c2.254-2.254 3.792-3 7-3"/><path fill="#C06C78" d="m345 137 1 3c-1.437 2.688-1.437 2.688-3 5l-2-1 1-4h2z"/><path fill="#4B4246" d="M128 128c5.75 1.625 5.75 1.625 8 5-3.375-.547-5.082-1.055-8-3z"/><path fill="#3F3436" d="m516 123 3 1-3 4-4-1z"/><path fill="#5E5A5E" d="M653 121h6v3h-6z"/><path fill="#605456" d="M560 118c3.815 2.462 3.815 2.462 4.75 5.188L565 125h-3c-1.46-2.647-2-3.894-2-7"/><path fill="#D55664" d="M362 70h1c.286 7.429.286 7.429-2 11-1.25-7.625-1.25-7.625 1-11"/><path fill="#4C4147" d="m497 57 2 3-6 2v-4z"/><path fill="#473E43" d="M82 58h5l1 4-6-1z"/><path fill="#B14859" d="m348 36 3 1-1 3-6 1v-2h2v-2z"/><path fill="#D55461" d="m358 37 8 1 1 3-5-1v-2l-5 1z"/><path fill="#42383B" d="M455 33h7c-4.75 4-4.75 4-7 4z"/><path fill="#473D3F" d="m19 25 1 3a91 91 0 0 1-4 4h-2c1.25-3.653 1.671-4.78 5-7"/><path fill="#D65666" d="M362 176c1.108 3.325.845 5.622 0 9l-2-1c.875-6.875.875-6.875 2-8"/><path fill="#C16C75" d="M341 145v2c-2.709 1.354-5.01 1.065-8 1v-2c2.763-.597 5.16-1 8-1"/><path fill="#AE6069" d="M380 136c1.467 3.815.433 6.29-1 10h-1c-.25-6.625-.25-6.625 2-10"/><path fill="#433A3D" d="m657 128 2 1v2l3 1-7 1c.875-3.875.875-3.875 2-5"/><path fill="#4B3E42" d="m572 127 1 2h5v3l-4 1v-3h-2z"/><path fill="#4F4A4C" d="M564 123c3 2 3 2 3.688 4.625L568 130h-3c-1.062-1.812-1.062-1.812-2-4z"/><path fill="#58474C" d="m205 124 5 1-1 5c-2-1.312-2-1.312-4-3z"/><path fill="#423A3A" d="M160 117h2a85 85 0 0 1-2 7l-4-2 3-1c.733-2.015.733-2.015 1-4"/><path fill="#DA5363" d="m358 79 1 2h2l-2 8h-1z"/><path fill="#3E383B" d="m615 73 2 1v5l-3 1z"/><path fill="#5E5254" d="M156 63c2.5 1.375 2.5 1.375 5 3v2c-2.437-.375-2.437-.375-5-1l-1-2z"/><path fill="#433D3D" d="m595 59 5 2-3 3-3-3z"/></svg>